<svg width="70" height="70" viewBox="0 0 70 70" fill="none" xmlns="http://www.w3.org/2000/svg">
<rect width="70" height="70" rx="16" fill="#B47447"/>
<path d="M28.644 55.9997H30.4173C30.4207 55.9255 30.4284 55.8503 30.4284 55.7743C30.4284 50.7289 30.4275 45.6834 30.4327 40.638C30.4327 40.4368 30.3917 40.359 30.1775 40.3677C29.744 40.3841 29.3096 40.3815 28.8769 40.3677C28.6858 40.3616 28.6405 40.4264 28.6405 40.6138C28.6465 43.4281 28.644 46.2423 28.644 49.0566C28.644 49.1559 28.644 49.2544 28.644 49.3943C28.5364 49.3468 28.4571 49.3209 28.3888 49.2786C27.392 48.667 26.7896 47.8213 26.7938 46.5922C26.8024 43.9654 26.8049 41.3377 26.7896 38.7109C26.7861 38.1339 26.9884 37.6769 27.3758 37.2848C28.0014 36.6507 28.7686 36.2474 29.5784 35.9217C31.3859 35.1944 33.2642 34.7729 35.2091 34.8264C37.4338 34.8886 39.5707 35.3836 41.5455 36.4711C42.0285 36.7371 42.468 37.0671 42.8161 37.5076C43.0679 37.8255 43.2053 38.1788 43.2044 38.5977C43.1976 41.3325 43.1976 44.0681 43.2036 46.8029C43.2053 47.7738 42.4407 48.9218 41.4413 49.3606C41.4243 49.3684 41.4012 49.3615 41.3534 49.3615C41.3534 49.2518 41.3534 49.1464 41.3534 49.041C41.3534 46.2415 41.35 43.441 41.3586 40.6415C41.3586 40.4152 41.2929 40.3616 41.0829 40.3685C40.6571 40.3832 40.2295 40.3806 39.8028 40.3685C39.6168 40.3633 39.5639 40.4212 39.5639 40.6121C39.5699 43.6423 39.5682 46.6725 39.5673 49.7027C39.5673 51.7179 39.5673 53.7332 39.5673 55.7484V55.9963H41.3526C41.3526 55.8944 41.3526 55.7968 41.3526 55.6983C41.3526 54.3093 41.356 52.9203 41.3483 51.5313C41.3475 51.3543 41.4046 51.2929 41.5693 51.2376C43.457 50.6062 44.5878 49.2941 44.9624 47.3195C45.0025 47.1096 44.994 46.8893 44.994 46.6734C44.9965 43.9956 44.9872 41.3187 45 38.6409C45.0059 37.3141 44.3719 36.3424 43.3956 35.552C42.3178 34.6796 41.0658 34.1596 39.7593 33.7639C38.0483 33.2457 36.3005 32.9209 34.511 33.0176C31.9346 33.1567 29.4666 33.7311 27.2282 35.0985C26.7085 35.4164 26.2468 35.8094 25.8534 36.2828C25.2978 36.9513 24.9983 37.7115 25 38.5943C25.0051 41.3075 24.9957 44.0215 25.0034 46.7347C25.0094 48.7551 26.4576 50.6762 28.3828 51.223C28.5979 51.2843 28.6508 51.3767 28.6491 51.5927C28.6388 52.9601 28.644 54.3274 28.644 55.6948V56.0006V55.9997Z" fill="white"/>
<path d="M17.6559 51.3457C16.968 51.2534 15.9704 50.6891 15.8344 49.9309C15.8122 49.8062 15.8036 49.6773 15.8036 49.5501C15.8019 46.8965 15.8087 44.2437 15.7976 41.5909C15.795 41.0521 15.9781 40.6065 16.3255 40.2146C16.7969 39.6826 17.3873 39.3138 18.0187 39.0073C19.2858 38.3934 20.6256 38.0237 22.0228 37.8743C22.673 37.8051 23.3292 37.7949 24 37.7573V36.0292C23.9803 36.0232 23.9547 36.0096 23.9281 36.0087C21.4752 35.9302 19.1446 36.4219 16.9561 37.5362C16.1304 37.9562 15.3895 38.4941 14.8094 39.2293C14.2661 39.9183 13.9958 40.6953 14.0001 41.5789C14.0103 43.5068 14.0026 45.4339 14.0026 47.3618C14.0026 48.0235 14.0026 48.6852 14.0026 49.346C14.0026 51.0084 14.7855 52.1841 16.3366 52.8133C16.7037 52.9619 17.0921 53.0575 17.4754 53.1634C17.6063 53.1993 17.6585 53.2488 17.6576 53.3914C17.6508 54.1811 17.6551 54.9701 17.6551 55.7598C17.6551 55.8358 17.6551 55.9127 17.6551 56.0006H19.4441V55.7633C19.4441 51.6949 19.4424 47.6256 19.4492 43.5572C19.4492 43.3412 19.3953 43.2746 19.178 43.2831C18.7579 43.2994 18.337 43.2977 17.9169 43.2831C17.7158 43.2763 17.6499 43.3275 17.6508 43.5401C17.6585 46.0367 17.6559 48.5332 17.6559 51.0306C17.6559 51.1296 17.6559 51.2278 17.6559 51.3448V51.3457Z" fill="white"/>
<path d="M52.3468 51.3636C52.3468 51.2467 52.3468 51.1562 52.3468 51.0657C52.3468 48.5833 52.3476 46.1009 52.3468 43.6185C52.3468 43.2736 52.4067 43.2924 52.0105 43.2907C51.604 43.289 51.1976 43.3001 50.7911 43.2873C50.6003 43.2813 50.5532 43.3445 50.5532 43.5297C50.5592 46.695 50.5575 49.8603 50.5575 53.0257C50.5575 53.9365 50.5575 54.8465 50.5575 55.7573C50.5575 55.8341 50.5575 55.911 50.5575 56.0006H52.3468C52.3468 55.882 52.3468 55.771 52.3468 55.6592C52.3468 54.919 52.3536 54.1798 52.3416 53.4397C52.3382 53.2467 52.4084 53.1904 52.5847 53.1546C53.4866 52.9693 54.3063 52.6091 54.9798 51.9646C55.6447 51.3286 55.9998 50.5552 55.9998 49.629C55.9998 46.905 56.0006 44.1802 55.9989 41.4562C55.9981 40.2508 55.4213 39.3238 54.5485 38.5555C53.502 37.6336 52.2526 37.0898 50.9391 36.6766C49.3775 36.1858 47.779 35.9493 46.1395 36.0099C46.0976 36.0116 46.0556 36.0168 46 36.021V37.7949C46.2002 37.7949 46.397 37.7949 46.5939 37.7949C48.4602 37.7958 50.2375 38.1995 51.9266 38.9849C52.5239 39.2623 53.0793 39.6072 53.5482 40.0776C53.9837 40.5146 54.2122 41.02 54.2079 41.6594C54.19 44.2911 54.196 46.9229 54.2045 49.5547C54.2062 50.0592 54.0103 50.4485 53.6338 50.7601C53.2667 51.064 52.8457 51.2586 52.3468 51.3636Z" fill="white"/>
<path d="M18 30.0154C18.0688 30.6607 18.0554 31.3282 18.2216 31.9464C18.6389 33.4984 19.7093 34.4299 21.2212 34.8173C22.7088 35.1978 24.1276 35.0037 25.3894 34.068C26.3994 33.3196 26.9224 32.2784 26.9761 31.0183C27.008 30.2691 27.0164 29.5114 26.9476 28.7664C26.799 27.1598 25.9351 26.0215 24.4802 25.4306C22.7013 24.7087 20.9761 24.8687 19.4482 26.1169C18.5272 26.8686 18.0915 27.8954 18.063 29.0942C18.0562 29.399 18.0621 29.7038 18.0621 30.0086C18.0411 30.0111 18.021 30.0128 18 30.0154ZM19.794 30.0154C19.8016 30.0154 19.8083 30.0154 19.8159 30.0145C19.8159 29.7455 19.8108 29.4756 19.8167 29.2066C19.8369 28.2734 20.2449 27.5702 21.0701 27.1539C21.9415 26.7154 22.8507 26.6898 23.7507 27.0542C24.6649 27.4246 25.1846 28.1151 25.2131 29.1325C25.2308 29.7489 25.2333 30.367 25.2056 30.9826C25.1644 31.8902 24.6918 32.5287 23.8942 32.9025C23.0195 33.3137 22.117 33.3145 21.2296 32.9433C20.5068 32.6402 20.0157 32.0996 19.8746 31.307C19.7999 30.8855 19.8176 30.447 19.794 30.0154Z" fill="white"/>
<path d="M51.9992 29.9925C51.9287 29.3409 51.9337 28.6697 51.7726 28.0419C51.4293 26.7089 50.5422 25.8191 49.2792 25.3513C47.7979 24.8026 46.3343 24.8817 44.9621 25.7026C43.7343 26.4367 43.0906 27.5655 43.0243 29.004C42.9899 29.7381 42.9865 30.4808 43.0503 31.2115C43.1888 32.7895 44.0171 33.9294 45.4405 34.5342C47.2566 35.3057 49.0157 35.1466 50.5783 33.8579C51.4763 33.117 51.901 32.1072 51.9345 30.9342C51.9438 30.6228 51.9362 30.3106 51.9362 29.9993C51.9572 29.9967 51.9782 29.995 52 29.9925H51.9992ZM44.7615 30.0095C44.7674 30.0095 44.7733 30.0095 44.7783 30.0095C44.7783 29.7475 44.7758 29.4855 44.7783 29.2235C44.7884 28.2035 45.2584 27.4754 46.1731 27.0739C47.0325 26.6962 47.9188 26.6953 48.7798 27.0722C49.6954 27.4737 50.1679 28.2001 50.1805 29.2184C50.1872 29.7424 50.1881 30.2673 50.1805 30.7913C50.1654 31.7721 49.7164 32.4841 48.8419 32.8932C48.0254 33.2752 47.1777 33.2931 46.3334 32.9851C45.5194 32.6874 44.9722 32.1217 44.8236 31.2396C44.7565 30.838 44.7792 30.4212 44.7615 30.0112V30.0095Z" fill="white"/>
<path d="M39.0008 19.0179C39.0597 19.6291 39.0529 20.2565 39.1908 20.8489C39.5 22.1744 40.3361 23.0997 41.5773 23.5892C43.2958 24.2668 44.9597 24.1332 46.4656 22.9959C47.4144 22.2791 47.9211 21.2805 47.9656 20.0802C47.9967 19.2528 48.0379 18.4118 47.9303 17.5962C47.7068 15.9022 46.6992 14.7998 45.1152 14.2822C43.5992 13.7859 42.1219 13.929 40.7798 14.8441C39.6966 15.583 39.1269 16.6454 39.0622 17.9725C39.0454 18.319 39.0597 18.6671 39.0597 19.0145C39.0395 19.0162 39.0193 19.0179 39 19.0196L39.0008 19.0179ZM40.8378 19.0102C40.832 19.0102 40.8261 19.0102 40.8202 19.0102C40.8202 18.7267 40.8168 18.4433 40.8202 18.1598C40.8336 17.2651 41.232 16.5943 42.0059 16.1763C42.8463 15.7226 43.7328 15.6902 44.6278 15.9933C45.5715 16.3134 46.258 17.1314 46.2194 18.2849C46.2017 18.8161 46.2228 19.3482 46.2144 19.8802C46.2034 20.6072 45.9118 21.2039 45.3303 21.6279C44.4942 22.2357 43.5555 22.3302 42.5883 22.0595C41.6353 21.793 40.9925 21.1835 40.8462 20.156C40.7925 19.7814 40.8378 19.3924 40.8378 19.0102Z" fill="white"/>
<path d="M22.0108 19.0034C22.0023 19.6686 21.9549 20.3397 22.158 20.9879C22.6336 22.5056 23.6744 23.4382 25.1824 23.8164C26.786 24.2184 28.2948 23.9842 29.598 22.8991C30.4526 22.1871 30.9291 21.2468 30.9697 20.1285C31.001 19.2726 31.0331 18.4047 30.9274 17.5589C30.737 16.0395 29.8544 14.974 28.4547 14.4213C26.648 13.7075 24.9091 13.8736 23.369 15.1384C22.5092 15.8444 22.0717 16.8001 22.0125 17.9183C21.993 18.2786 22.0091 18.6414 22.0091 19.0034H22.0108ZM29.196 18.9975C29.2019 18.9975 29.207 18.9975 29.2129 18.9975C29.2129 19.2743 29.2146 19.5511 29.2129 19.827C29.2045 20.769 28.7695 21.4521 27.9428 21.8711C27.1947 22.251 26.4043 22.291 25.5987 22.0832C24.5748 21.8191 23.7294 20.9972 23.776 19.6984C23.7946 19.1882 23.7743 18.6772 23.7802 18.1662C23.7912 17.2898 24.1822 16.6263 24.9378 16.2022C25.7274 15.7593 26.577 15.698 27.4342 15.9441C28.3913 16.2183 29.0411 16.8222 29.1884 17.8502C29.2417 18.225 29.1969 18.6142 29.1969 18.9975H29.196Z" fill="white"/>
<path d="M39.9875 26.9838C39.9988 26.3185 40.0486 25.648 39.8212 24.9997C39.2901 23.4911 38.133 22.5719 36.4712 22.1869C34.895 21.8205 33.3713 21.9781 31.9943 22.8062C30.7621 23.5473 30.0844 24.6113 30.0317 25.9564C29.9998 26.7844 29.9622 27.6252 30.0834 28.4413C30.325 30.0667 31.4003 31.152 33.0875 31.675C34.9908 32.2654 36.8152 32.0771 38.4225 30.9109C39.3991 30.2022 39.9105 29.2463 39.9838 28.1117C40.0082 27.7368 39.9875 27.3603 39.9875 26.9838ZM32.0056 27.011C32 27.011 31.9943 27.011 31.9896 27.011C31.9896 26.7342 31.9877 26.4573 31.9896 26.1813C31.9981 25.2493 32.468 24.5627 33.376 24.1436C34.2596 23.7356 35.1901 23.7023 36.1357 23.9553C37.1593 24.2288 38.0757 25.0168 38.0296 26.281C38.0108 26.7912 38.0296 27.3024 38.0259 27.8135C38.0184 28.765 37.5315 29.4576 36.5981 29.8682C35.5933 30.3103 34.5538 30.3129 33.5311 29.9193C32.6711 29.588 32.1334 28.9899 32.015 28.1389C31.9633 27.7692 32.0065 27.3884 32.0065 27.0127L32.0056 27.011Z" fill="white"/>
</svg>
