<svg width="70" height="70" viewBox="0 0 70 70" fill="none" xmlns="http://www.w3.org/2000/svg">
<rect width="70" height="70" rx="16" fill="#B47447"/>
<g clip-path="url(#clip0_3593_18837)">
<path d="M36.4844 59.119C35.2029 59.3235 33.9483 59.3184 32.6927 59.2777C31.0616 59.2248 29.4385 59.0865 27.8303 58.7915C25.0924 58.2901 22.5563 57.2914 20.2679 55.664C20.1411 55.5735 20.1281 55.4962 20.1651 55.3518C20.5986 53.6574 21.082 51.9741 21.4386 50.2634C22.1598 46.8023 22.4474 43.2944 22.2667 39.7561C22.2247 38.9282 22.1288 38.1023 22.0459 37.2764C22.0329 37.1503 21.975 37.014 21.9011 36.9113C20.4068 34.8324 19.4219 32.5328 19.0154 29.9881C18.3681 25.9381 19.1852 22.2045 21.4656 18.8268C23.3714 16.0024 25.9225 13.9876 29.1228 12.9146C33.365 11.4907 37.5092 11.7958 41.4088 14.0578C45.3912 16.3675 47.8295 19.8866 48.8004 24.4471C49.1849 26.2534 49.2069 28.077 48.9692 29.9057C48.9662 29.9312 48.9642 29.9566 48.9592 29.981C48.8363 30.5434 48.9562 31.0398 49.2309 31.5503C49.8382 32.6773 50.3875 33.8367 50.9609 34.9829C51.5442 36.1485 51.0308 37.2358 49.7653 37.5002C49.2688 37.6039 48.7694 37.6975 48.269 37.7779C48.1181 37.8023 48.0612 37.8633 48.0832 38.0067C48.1221 38.2742 48.1591 38.5427 48.208 38.8081C48.3549 39.5933 48.0882 40.2595 47.4369 40.6948C47.321 40.7721 47.2861 40.8352 47.34 40.9806C47.5448 41.5319 47.5028 42.076 47.1622 42.553C46.8636 42.972 46.7817 43.3931 46.8965 43.8996C47.0274 44.4753 47.1393 45.0662 47.1632 45.654C47.1802 46.0802 47.0963 46.5328 46.9615 46.9406C46.4331 48.5344 44.4533 50.0325 42.1929 49.3623C40.7096 48.9229 39.2063 48.5517 37.717 48.1337C37.4933 48.0706 37.3934 48.1276 37.2815 48.3137C36.7471 49.2036 36.4684 50.181 36.3106 51.2011C36.0369 52.98 36.0919 54.7649 36.2427 56.5499C36.3146 57.4012 36.4015 58.2515 36.4834 59.118L36.4844 59.119ZM49.5895 35.8597C49.5395 35.7529 49.5055 35.6766 49.4686 35.6013C48.7944 34.2039 48.1261 32.8034 47.4409 31.412C47.3141 31.1547 47.2881 30.9106 47.32 30.6329C47.4219 29.7583 47.5548 28.8836 47.5877 28.0059C47.6487 26.3399 47.382 24.7126 46.8406 23.1392C44.0678 15.083 35.9121 12.049 29.2357 14.6029C23.5062 16.7947 19.6606 22.8991 20.5286 29.2802C21.1339 33.7289 23.3304 37.1422 27.0891 39.5018C27.2979 39.633 27.5316 39.7316 27.7664 39.8059C27.9052 39.8496 27.9542 39.9076 27.9651 40.0449C27.9971 40.4843 28.0441 40.9226 28.074 41.361C28.1809 42.9578 29.1058 44.1071 30.6221 44.5159C31.7708 44.8251 32.9195 45.1333 34.0682 45.4415C36.9039 46.2012 39.7387 46.9661 42.5765 47.7197C43.9329 48.0798 45.2184 47.4014 45.598 46.1331C45.6519 45.9541 45.6649 45.7476 45.639 45.5625C45.565 45.0265 45.4921 44.4864 45.3623 43.9627C45.1725 43.1978 45.2524 42.5062 45.7329 41.8746C45.8068 41.778 45.8547 41.661 45.9226 41.538C45.7818 41.4017 45.6519 41.2827 45.5291 41.1576C45.1116 40.7355 45.1935 40.1293 45.7079 39.8364C45.9836 39.6798 46.2593 39.5221 46.5429 39.3818C46.6808 39.3136 46.7327 39.2353 46.6808 39.0868C46.3841 38.2386 46.5559 37.3792 46.6218 36.5218C46.6328 36.3845 46.6948 36.3357 46.8206 36.3163C47.371 36.2329 47.9214 36.1424 48.4707 36.0519C48.8373 35.9919 49.2029 35.9258 49.5885 35.8597H49.5895ZM34.7214 57.6636C34.6765 56.9913 34.6275 56.3506 34.5936 55.7078C34.5227 54.3612 34.5187 53.0146 34.6785 51.6731C34.8463 50.2685 35.1799 48.9127 35.9221 47.675C35.8541 47.6495 35.8032 47.6251 35.7503 47.6109C33.9673 47.1318 32.1883 46.6365 30.4004 46.1809C29.2717 45.8941 28.3177 45.354 27.5946 44.4153C26.8554 43.4562 26.5647 42.3445 26.5268 41.1494C26.5208 40.9765 26.4539 40.884 26.317 40.7874C25.6398 40.3124 24.9726 39.8232 24.3043 39.335C24.1665 39.2343 24.0416 39.1163 23.8698 38.9709C24.0666 41.7027 24.0117 44.3705 23.687 47.0332C23.3614 49.701 22.7841 52.3128 22.0369 54.8789C22.0589 54.9043 22.0669 54.9195 22.0799 54.9287C22.1348 54.9663 22.1907 55.004 22.2467 55.0396C23.7639 56.0068 25.4191 56.6201 27.1591 57.0157C29.1158 57.4612 31.1036 57.6138 33.1023 57.6605C33.6327 57.6728 34.1641 57.6626 34.7224 57.6626L34.7214 57.6636Z" fill="white"/>
<path d="M23.6445 21.8617H26.0168V20.6137C28.8296 19.9445 31.5115 20.0869 34.0247 21.7142C36.4909 20.1093 39.1818 19.9323 42.0066 20.6117V21.8607H44.3888V34.0523H23.6445V21.8617ZM40.3954 21.9705C40.3584 21.9552 40.3365 21.941 40.3125 21.9369C40.2556 21.9278 40.1966 21.9227 40.1387 21.9176C39.1009 21.8159 38.079 21.9247 37.0722 22.178C36.327 22.3661 35.6119 22.6357 35.0056 23.1422C34.8657 23.2591 34.8088 23.3832 34.8088 23.5734C34.8158 25.9442 34.8138 28.316 34.8138 30.6868V30.9421C36.5997 30.0796 38.4816 30.0043 40.3954 30.0623V21.9715V21.9705ZM27.634 30.045C28.9964 29.8599 31.3887 30.2077 33.2156 30.8587V30.581C33.2156 28.3963 33.1756 26.2107 33.2376 24.027C33.2586 23.2896 32.9779 22.9174 32.3806 22.6672C32.3576 22.658 32.3356 22.6448 32.3136 22.6346C31.0121 22.0407 29.6407 21.8505 28.2283 21.8912C28.0315 21.8973 27.8347 21.9278 27.634 21.9471V30.044V30.045ZM26.0178 32.1168V23.5083H25.2387V32.425H32.8071C32.6443 32.3029 32.4774 32.2083 32.3006 32.1412C30.9542 31.6286 29.5558 31.4964 28.1304 31.5554C27.4921 31.5818 26.8788 31.7059 26.3035 31.9998C26.2246 32.0405 26.1387 32.0669 26.0178 32.1158V32.1168ZM42.0875 32.1442C40.9638 31.5513 39.8111 31.4699 38.6384 31.5665C36.9803 31.7039 35.6808 32.0507 35.3192 32.428H42.8746V23.5134H42.0875V32.1453V32.1442Z" fill="white"/>
</g>
<defs>
<clipPath id="clip0_3593_18837">
<rect width="32.4" height="47.25" fill="white" transform="translate(18.8008 12.05)"/>
</clipPath>
</defs>
</svg>
