<svg width="70" height="70" viewBox="0 0 70 70" fill="none" xmlns="http://www.w3.org/2000/svg">
<rect width="70" height="70" rx="16" fill="#B47447"/>
<path d="M25.6668 44.2403C26.0405 44.2403 26.3668 43.914 26.3668 43.5403V41.8595C26.3668 41.4858 26.0405 41.1595 25.6668 41.1595C25.2931 41.1595 24.9668 41.4858 24.9668 41.8595V43.5403C24.9668 43.9596 25.2931 44.2403 25.6668 44.2403Z" fill="white"/>
<path d="M21.5594 44.2403C21.9331 44.2403 22.2594 43.914 22.2594 43.5403V41.8595C22.2594 41.4858 21.9331 41.1595 21.5594 41.1595C21.1857 41.1595 20.8594 41.4858 20.8594 41.8595V43.5403C20.8594 43.9596 21.1401 44.2403 21.5594 44.2403Z" fill="white"/>
<path d="M25.6668 38.4998C26.0405 38.4998 26.3668 38.1735 26.3668 37.7998V36.1191C26.3668 35.7454 26.0405 35.4191 25.6668 35.4191C25.2931 35.4191 24.9668 35.7454 24.9668 36.1191V37.7998C24.9668 38.1735 25.2931 38.4998 25.6668 38.4998Z" fill="white"/>
<path d="M21.5594 38.4998C21.9331 38.4998 22.2594 38.1735 22.2594 37.7998V36.1191C22.2594 35.7454 21.9331 35.4191 21.5594 35.4191C21.1857 35.4191 20.8594 35.7454 20.8594 36.1191V37.7998C20.8594 38.1735 21.1401 38.4998 21.5594 38.4998Z" fill="white"/>
<path d="M35.0013 36.3522C37.1487 36.3522 38.9205 34.5785 38.9205 32.433C38.9205 30.2856 37.1468 28.5137 35.0013 28.5137C32.8539 28.5137 31.082 30.2874 31.082 32.433C31.082 34.6259 32.8539 36.3522 35.0013 36.3522ZM35.0013 29.9136C36.4013 29.9136 37.5205 31.0329 37.5205 32.4329C37.5205 33.8329 36.4013 34.9521 35.0013 34.9521C33.6013 34.9521 32.482 33.8329 32.482 32.4329C32.482 31.0329 33.6013 29.9136 35.0013 29.9136Z" fill="white"/>
<path d="M55.3002 50.4927H53.5265V32.4332H55.2072C55.4405 32.4332 55.6739 32.2928 55.8143 32.1069C55.9546 31.921 55.9546 31.6402 55.8617 31.4069L52.2669 24.0807C52.1265 23.8474 51.8932 23.707 51.6598 23.707H37.286L36.7719 23.1474C36.4456 22.8211 36.0719 22.5403 35.6982 22.4474V19.5544H40.784C41.1577 19.5544 41.484 19.2281 41.484 18.8544L41.4858 14.7C41.4858 14.3263 41.1595 14 40.7858 14H35.0001C34.6264 14 34.3001 14.3263 34.3001 14.7V22.4C33.9264 22.5404 33.5527 22.7737 33.2264 23.1L32.7123 23.6596H18.3403C18.0596 23.6596 17.8263 23.8 17.7333 24.0333L14.1403 31.4524C14.0474 31.6857 14.0474 31.9191 14.1877 32.1524C14.3281 32.3383 14.5614 32.4787 14.7948 32.4787H16.4755V50.493H14.7C14.3263 50.493 14 50.8193 14 51.193V55.3C14 55.6737 14.3263 56 14.7 56H55.3C55.6737 56 56 55.6737 56 55.3V51.193C56 50.7737 55.6739 50.4927 55.3002 50.4927ZM40.6478 50.4927V47.6927H52.1287V50.4927H40.6478ZM35.7002 50.4927V42.6523H39.2476V50.4927H35.7002ZM30.7526 50.4927V42.6523H34.3V50.4927H30.7526ZM51.193 25.107L54.086 31.0332H44.1474L38.5931 25.107H51.193ZM40.0859 18.1527H35.7V15.4001H40.0859V18.1527ZM18.8068 25.107H31.4068L25.8526 31.0332H15.914L18.8068 25.107ZM26.1806 32.4332C26.3666 32.4332 26.5543 32.3402 26.6947 32.1999L34.2543 24.0332C34.4402 23.8473 34.6735 23.6595 35.0017 23.6595C35.328 23.6595 35.5613 23.8928 35.7491 24.0332L43.3086 32.1999C43.449 32.3402 43.6349 32.4332 43.8227 32.4332H52.1298V46.2475H40.6475V41.9545C40.6475 41.5808 40.3212 41.2545 39.9475 41.2545L30.0528 41.2527C29.6791 41.2527 29.3528 41.579 29.3528 41.9527V46.2456L17.8737 46.2475V32.4332H26.1806ZM17.8735 47.6475H29.3544V50.4475H17.8735V47.6475ZM54.5997 54.5999H15.3997V51.8928H54.5997V54.5999Z" fill="white"/>
<path d="M48.4402 44.2403C48.8139 44.2403 49.1402 43.914 49.1402 43.5403V41.8595C49.1402 41.4858 48.8139 41.1595 48.4402 41.1595C48.0665 41.1595 47.7402 41.4858 47.7402 41.8595V43.5403C47.7402 43.9596 48.0665 44.2403 48.4402 44.2403Z" fill="white"/>
<path d="M44.3348 44.2403C44.7085 44.2403 45.0348 43.914 45.0348 43.5403V41.8595C45.0348 41.4858 44.7085 41.1595 44.3348 41.1595C43.9611 41.1595 43.6348 41.4858 43.6348 41.8595V43.5403C43.6348 43.9596 43.9611 44.2403 44.3348 44.2403Z" fill="white"/>
<path d="M48.4402 38.4998C48.8139 38.4998 49.1402 38.1735 49.1402 37.7998V36.1191C49.1402 35.7454 48.8139 35.4191 48.4402 35.4191C48.0665 35.4191 47.7402 35.7454 47.7402 36.1191V37.7998C47.7402 38.1735 48.0665 38.4998 48.4402 38.4998Z" fill="white"/>
<path d="M44.3348 38.4998C44.7085 38.4998 45.0348 38.1735 45.0348 37.7998V36.1191C45.0348 35.7454 44.7085 35.4191 44.3348 35.4191C43.9611 35.4191 43.6348 35.7454 43.6348 36.1191V37.7998C43.6348 38.1735 43.9611 38.4998 44.3348 38.4998Z" fill="white"/>
</svg>
