<svg width="70" height="70" viewBox="0 0 70 70" fill="none" xmlns="http://www.w3.org/2000/svg">
<rect width="70" height="70" rx="16" fill="#B47447"/>
<path d="M34.0593 14C33.9936 14 33.9296 14.0115 33.867 14.0312L20.4286 18.5953C20.4286 18.5953 20.427 18.5953 20.427 18.597C20.413 18.6003 20.4005 18.6052 20.388 18.6085C20.3505 18.6249 20.3161 18.6446 20.2833 18.6675C20.2817 18.6692 20.2817 18.6692 20.2817 18.6692C20.1957 18.7299 20.1239 18.8103 20.0754 18.9071C20.0707 18.9153 20.0676 18.9235 20.0629 18.9317C20.0567 18.9415 20.052 18.953 20.0473 18.9628C20.0129 19.0498 19.9973 19.1433 20.0004 19.2368C20.0004 19.245 20.002 19.2549 20.002 19.2631C20.0051 19.3123 20.0129 19.3615 20.027 19.4107V19.4173C20.0316 19.4271 20.0363 19.4353 20.0395 19.4452C20.052 19.4813 20.0676 19.5157 20.0863 19.5485C20.0942 19.5633 20.102 19.5764 20.1113 19.5896C20.1364 19.6289 20.1645 19.665 20.1973 19.6978C20.2098 19.7077 20.2223 19.7192 20.2348 19.729C20.2567 19.7471 20.2801 19.7635 20.3036 19.7782C20.3255 19.7914 20.3473 19.8045 20.3692 19.816C20.3723 19.8176 20.3755 19.8192 20.3786 19.8209L26.7501 22.6641V29.5597C26.7501 32.5227 28.3411 35.0937 30.6743 36.378C24.7592 37.9563 20.396 43.5853 20.396 50.3103V55.347L20.3976 55.3454C20.3976 55.5193 20.4648 55.6866 20.582 55.8097C20.6992 55.9327 20.8586 56 21.0258 56H47.093C47.4368 56 47.7165 55.7063 47.7165 55.3454V50.3087C47.7165 43.5836 43.3533 37.9548 37.4367 36.3764C39.7699 35.0934 41.3608 32.5225 41.3608 29.5597V26.8462L41.3624 26.8445V26.8248V26.0504V26.0521V26.0307V22.6642L46.8682 20.2081V25.0104C45.7914 25.3057 44.9897 26.3394 44.9897 27.5616V30.3671C44.9913 30.728 45.2679 31.0201 45.6117 31.0201H49.3733C49.7171 31.0217 49.9984 30.7297 50 30.3671V27.5632C50 26.3393 49.1967 25.3041 48.1169 25.0104V19.2749C48.1184 19.2601 48.12 19.2453 48.12 19.2306V19.2125C48.12 19.1272 48.1028 19.0419 48.0715 18.9631C48.0653 18.9484 48.059 18.9336 48.0512 18.9188C48.0481 18.9139 48.0465 18.909 48.0434 18.9041C48.0356 18.891 48.0293 18.8778 48.0215 18.8647C48.0168 18.8565 48.0106 18.8499 48.0059 18.8434C48.0043 18.8401 48.0028 18.8368 47.9997 18.8335C47.995 18.827 47.9903 18.8188 47.9856 18.8122L47.9809 18.8073C47.9731 18.7974 47.9668 18.7892 47.959 18.7794C47.9543 18.7745 47.9496 18.7696 47.945 18.7646H47.9434C47.9418 18.763 47.9403 18.7597 47.9387 18.7581C47.9387 18.7564 47.9371 18.7564 47.9371 18.7548C47.9293 18.7466 47.9199 18.7384 47.9121 18.7318C47.9043 18.7236 47.8965 18.7171 47.8871 18.7088C47.8699 18.6941 47.8527 18.681 47.834 18.6678C47.8246 18.6613 47.8168 18.6563 47.8074 18.6498C47.8043 18.6498 47.8027 18.6481 47.7996 18.6465L47.7981 18.6449C47.7809 18.635 47.7637 18.6268 47.7465 18.6186C47.7449 18.617 47.7434 18.617 47.7418 18.6153C47.734 18.6121 47.7262 18.6088 47.7199 18.6055C47.709 18.6022 47.698 18.5973 47.6871 18.594C47.6777 18.5907 47.6668 18.5874 47.6574 18.5842L47.648 18.5809C47.6433 18.5809 47.6402 18.5792 47.6371 18.5792L34.2502 14.0331C34.1893 14.0118 34.1237 14.0003 34.0596 14.0003L34.0593 14ZM34.0561 15.3453L45.7051 19.3025L40.7134 21.5256C39.9398 21.2565 37.3471 20.451 34.0557 20.451C30.7708 20.451 28.1795 21.2549 27.4029 21.5256L22.41 19.3025L34.0561 15.3453ZM34.0561 21.765C36.9317 21.765 39.2211 22.4115 40.1104 22.7035V25.3941L28.0018 25.3925V22.7019C28.8911 22.4098 31.1805 21.7634 34.0561 21.7634V21.765ZM47.4946 26.2406C48.1994 26.2406 48.7495 26.8148 48.7495 27.5629V29.7089H46.2397V27.5629C46.2397 26.8148 46.7898 26.2406 47.4946 26.2406ZM28.0018 26.7065H40.112V29.5596C40.112 33.1034 37.4209 35.9353 34.0577 35.9353C30.693 35.9353 28.0034 33.1035 28.0034 29.5596V26.8673L28.0019 26.8657V26.8247L28.0018 26.7065ZM34.0561 37.2478C40.9402 37.2478 46.4648 43.0589 46.4648 50.309V54.688L21.6479 54.6863V50.3074C21.6479 43.0573 27.1725 37.2461 34.0565 37.2461L34.0561 37.2478Z" fill="white"/>
</svg>
