<svg width="70" height="70" viewBox="0 0 70 70" fill="none" xmlns="http://www.w3.org/2000/svg">
<rect width="70" height="70" rx="16" fill="#B47447"/>
<path d="M25.2356 23.0588H39.2349C39.6901 23.0588 40.0584 22.6905 40.0584 22.2353C40.0584 21.7801 39.6901 21.4118 39.2349 21.4118H25.2356C24.7804 21.4118 24.4121 21.7801 24.4121 22.2353C24.4121 22.6905 24.7821 23.0588 25.2356 23.0588Z" fill="white"/>
<path d="M25.2356 27.176H39.2349C39.6901 27.176 40.0584 26.8078 40.0584 26.3525C40.0584 25.8973 39.6901 25.5291 39.2349 25.5291H25.2356C24.7804 25.5291 24.4121 25.8973 24.4121 26.3525C24.4121 26.8078 24.7821 27.176 25.2356 27.176Z" fill="white"/>
<path d="M25.2356 31.2936H39.2349C39.6901 31.2936 40.0584 30.9254 40.0584 30.4702C40.0584 30.0149 39.6901 29.6467 39.2349 29.6467H25.2356C24.7804 29.6467 24.4121 30.0149 24.4121 30.4702C24.4121 30.9254 24.7821 31.2936 25.2356 31.2936Z" fill="white"/>
<path d="M25.2356 45.2947H30.1764C30.6317 45.2947 30.9999 44.9264 30.9999 44.4712C30.9999 44.016 30.6316 43.6477 30.1764 43.6477H25.2356C24.7804 43.6477 24.4121 44.016 24.4121 44.4712C24.4121 44.9247 24.7821 45.2947 25.2356 45.2947Z" fill="white"/>
<path d="M45.0003 35.4126C42.7293 35.4126 40.8828 37.2591 40.8828 39.5301C40.8828 41.8011 42.7293 43.6475 45.0003 43.6475C47.2713 43.6475 49.1178 41.8011 49.1178 39.5301C49.1178 37.2591 47.2696 35.4126 45.0003 35.4126ZM45.0003 42.0007C43.638 42.0007 42.5298 40.8924 42.5298 39.5302C42.5298 38.1679 43.638 37.0597 45.0003 37.0597C46.3625 37.0597 47.4708 38.1679 47.4708 39.5302C47.4708 40.8924 46.3625 42.0007 45.0003 42.0007Z" fill="white"/>
<path d="M52.4118 39.5302C52.4118 36.3096 50.347 33.5628 47.4709 32.5415V14.8235C47.4709 14.3682 47.1027 14 46.6474 14H17.8235C17.3682 14 17 14.3683 17 14.8235V51.8823C17 52.3375 17.3683 52.7058 17.8235 52.7058H33.0728C33.5281 52.7058 33.8963 52.3375 33.8963 51.8823C33.8963 51.4271 33.528 51.0588 33.0728 51.0588H18.6471V15.6468H45.8243V32.1628C45.2906 32.1031 44.7467 32.0997 44.1773 32.1628V20.5876C44.1773 20.3694 44.0903 20.1597 43.9369 20.0045L41.4664 17.534C41.3112 17.3806 41.1015 17.2936 40.8833 17.2936H23.5882C23.37 17.2936 23.1603 17.3806 23.0052 17.534L20.5347 20.0045C20.3812 20.1597 20.2943 20.3694 20.2943 20.5876V26.1613C20.2943 26.6166 20.6625 26.9848 21.1178 26.9848C21.573 26.9848 21.9412 26.6165 21.9412 26.1613V20.9289L23.9292 18.941H40.5408L42.5305 20.9289V32.5381C39.5809 33.5782 37.5896 36.376 37.5896 39.5286C37.5896 41.6462 38.4814 43.641 40.0601 45.0508V47.7651H23.9296L21.9416 45.7772V29.4554C21.9416 29.0002 21.5733 28.6319 21.1181 28.6319C20.6629 28.6319 20.2946 29.0002 20.2946 29.4554V46.118C20.2946 46.3363 20.3816 46.546 20.535 46.7011L23.0055 49.1716C23.1607 49.3268 23.3687 49.412 23.5886 49.412H40.0583V51.059H36.3671C35.9119 51.059 35.5436 51.4273 35.5436 51.8825C35.5436 52.3377 35.9119 52.706 36.3671 52.706H40.06V55.1765C40.06 55.4731 40.2203 55.7476 40.4777 55.8925C40.7352 56.0392 41.0523 56.034 41.3063 55.8823L45.0009 53.6659L48.6956 55.8823C48.9496 56.0357 49.2667 56.0392 49.5242 55.8925C49.7816 55.7459 49.9419 55.4731 49.9419 55.1765V51.6182C49.9419 51.163 49.5736 50.7947 49.1184 50.7947C48.6632 50.7947 48.2949 51.163 48.2949 51.6182V53.7221L45.4238 52.0001C45.1629 51.8433 44.8372 51.8433 44.5764 52.0001L41.707 53.7221V46.1673C43.7785 47.1988 46.2235 47.1988 48.295 46.1673V48.3241C48.295 48.7793 48.6633 49.1476 49.1185 49.1476C49.5737 49.1476 49.942 48.7793 49.942 48.3241V45.0489C51.4577 43.69 52.4125 41.7191 52.4125 39.5297L52.4118 39.5302ZM39.2356 39.5302C39.2356 36.3539 41.8187 33.7658 45.0001 33.7658C48.1781 33.7658 50.7645 36.3522 50.7645 39.5302C50.7645 42.7083 48.1781 45.2947 45.0001 45.2947C41.8152 45.2947 39.2356 42.7014 39.2356 39.5302Z" fill="white"/>
</svg>
