<svg width="70" height="70" viewBox="0 0 70 70" fill="none" xmlns="http://www.w3.org/2000/svg">
<rect width="70" height="70" rx="16" fill="#B47447"/>
<path d="M56.6707 24.9179L35.2846 14.1002C35.1048 14.0104 34.8905 14.0104 34.713 14.1002L24.6296 19.2012V14.5928C24.6296 14.2651 24.3546 14 24.0147 14H18.6448C18.3049 14 18.0299 14.2651 18.0299 14.5928V22.5386L13.3291 24.9158C13.1256 25.0181 13 25.2206 13 25.4418V55.4072C13 55.7349 13.275 56 13.6149 56H56.3851C56.725 56 57 55.7349 57 55.4072V25.4439C57 25.2227 56.8721 25.0202 56.6707 24.9179ZM28.139 54.8144H23.9644V45.9293H28.139V54.8144ZM26.0517 35.1239C28.5375 35.1239 30.5598 37.0733 30.5598 39.4693V44.7394H21.5435V39.4693C21.5435 37.0733 23.566 35.1239 26.0517 35.1239ZM22.9641 30.962C22.9641 29.3215 24.3477 27.9857 26.0517 27.9857C27.7536 27.9857 29.1394 29.3215 29.1394 30.962C29.1394 32.6025 27.7536 33.9383 26.0517 33.9383C24.3499 33.9383 22.9641 32.6025 22.9641 30.962ZM32.4893 54.8144H29.3713V45.9293H30.56V47.384C30.56 47.7117 30.835 47.9768 31.1749 47.9768H32.4871V54.8144L32.4893 54.8144ZM35.2586 39.3695C36.4603 39.3695 37.5213 39.9643 38.1449 40.8639C38.1492 40.8702 38.1514 40.8764 38.1557 40.8806C38.5151 41.4066 38.7251 42.0348 38.7251 42.711V46.7894H31.7897V42.711C31.7897 40.8681 33.3443 39.3695 35.2562 39.3695L35.2586 39.3695ZM32.9245 35.9319C32.9245 34.6921 33.9725 33.682 35.2586 33.682C36.5448 33.682 37.5927 34.6921 37.5927 35.9319C37.5927 37.1717 36.5448 38.1819 35.2586 38.1819C33.9725 38.1819 32.9245 37.1717 32.9245 35.9319ZM39.258 40.3463L39.2385 40.2315C39.2645 37.994 41.1613 36.1824 43.4867 36.1824C45.8144 36.1824 47.709 37.994 47.7371 40.2315L47.027 44.362C47.014 44.4371 47.0161 44.5123 47.0335 44.5874L48.3066 50.1854H38.6712L39.1735 47.9772H39.3424C39.6823 47.9772 39.9573 47.7121 39.9573 47.3844V42.7133C39.9573 41.8451 39.6997 41.0374 39.258 40.3486L39.258 40.3463ZM41.2608 34.2102H40.5875V32.2003C40.5875 30.6599 41.8888 29.4055 43.4868 29.4055C45.0847 29.4055 46.386 30.6599 46.386 32.2003V34.2102H45.7127C45.5698 34.2102 45.4312 34.2582 45.3208 34.3458C44.2511 35.1953 42.7203 35.1953 41.6528 34.3458C41.5424 34.2582 41.4037 34.2102 41.2608 34.2102ZM36.7961 54.8144H33.7193V47.9768H36.7961V54.8144ZM40.9988 54.8144H38.0281V51.3727H40.9988V54.8144ZM44.7447 54.8144H42.2308V51.3727H44.7447V54.8144ZM55.7681 54.8144H45.9769V51.3727H49.071C49.2573 51.3727 49.4348 51.2913 49.5517 51.1514C49.6687 51.0116 49.7141 50.8279 49.673 50.6526L48.2612 44.4455L48.9606 40.3776C48.9671 40.3463 48.9692 40.3129 48.9692 40.2795C48.9692 38.1547 47.6593 36.3243 45.7798 35.4873C45.8275 35.456 45.8794 35.4331 45.9271 35.3976H47.0032C47.3431 35.3976 47.6181 35.1325 47.6181 34.8048V32.2021C47.6181 30.0064 45.7647 28.2198 43.4869 28.2198C41.2091 28.2198 39.3556 30.0065 39.3556 32.2021V34.8048C39.3556 35.1325 39.6306 35.3976 39.9705 35.3976H41.0466C41.0943 35.431 41.1441 35.4539 41.1939 35.4852C39.6609 36.1698 38.5089 37.514 38.1366 39.1398C37.9027 38.9645 37.6537 38.8101 37.3895 38.6807C38.2578 38.0524 38.8229 37.0568 38.8229 35.9319C38.8229 34.0367 37.2228 32.4943 35.2567 32.4943C33.2907 32.4943 31.6906 34.0367 31.6906 35.9319C31.6906 37.0569 32.2557 38.0525 33.1239 38.6807C32.6194 38.929 32.169 39.2651 31.7902 39.6658V39.4717C31.7902 37.2364 30.4044 35.3099 28.4211 34.4375C29.5925 33.6924 30.3698 32.4129 30.3698 30.9623C30.3698 28.6664 28.4319 26.7984 26.0501 26.7984C23.6683 26.7984 21.7325 28.6664 21.7325 30.9623C21.7325 32.4129 22.5077 33.6924 23.6791 34.4375C21.6957 35.3099 20.31 37.2343 20.31 39.4717V45.3369C20.31 45.6646 20.585 45.9297 20.9249 45.9297H22.7307V54.8148H14.2299V25.8031L18.9307 23.4258C19.1342 23.3236 19.2598 23.1211 19.2598 22.8999V15.1876H23.3976V20.1843C23.3976 20.393 23.5102 20.585 23.6942 20.6915C23.8804 20.7979 24.1078 20.8062 24.2983 20.7081L34.9991 15.2961L55.7684 25.8007L55.7681 54.8144Z" fill="white"/>
</svg>
