<svg width="116" height="109" viewBox="0 0 116 109" fill="none" xmlns="http://www.w3.org/2000/svg">
<path d="M17.491 46.9493C15.4854 46.9493 13.8008 45.1269 13.8008 42.9573C13.8008 40.7878 15.4854 38.9653 17.491 38.9653C19.4965 38.9653 21.1812 40.7878 21.1812 42.9573C21.1812 45.1269 19.4965 46.9493 17.491 46.9493ZM17.491 40.701C16.3679 40.701 15.4052 41.7424 15.4052 42.9573C15.4052 44.1723 16.3679 45.2136 17.491 45.2136C18.6141 45.2136 19.5768 44.1723 19.5768 42.9573C19.5768 41.7424 18.6141 40.701 17.491 40.701Z" fill="black"/>
<path d="M34.657 37.6632C32.6515 37.6632 30.9668 35.8407 30.9668 33.6712C30.9668 31.5016 32.6515 29.6792 34.657 29.6792C36.6626 29.6792 38.3472 31.5016 38.3472 33.6712C38.3472 35.8407 36.6626 37.6632 34.657 37.6632ZM34.657 31.4148C33.5339 31.4148 32.5712 32.4562 32.5712 33.6712C32.5712 34.8861 33.5339 35.9275 34.657 35.9275C35.7801 35.9275 36.7428 34.8861 36.7428 33.6712C36.7428 32.4562 35.7801 31.4148 34.657 31.4148Z" fill="black"/>
<path d="M23.7488 19.6129C21.7433 19.6129 20.0586 17.7904 20.0586 15.6209C20.0586 13.4513 21.7433 11.6289 23.7488 11.6289C25.7544 11.6289 27.439 13.4513 27.439 15.6209C27.439 17.7904 25.7544 19.6129 23.7488 19.6129ZM23.7488 13.4513C22.6257 13.4513 21.663 14.4927 21.663 15.7077C21.663 16.9226 22.6257 17.964 23.7488 17.964C24.8719 17.964 25.8346 16.9226 25.8346 15.7077C25.8346 14.4059 24.8719 13.4513 23.7488 13.4513Z" fill="black"/>
<path d="M27.114 59.1856C25.1085 59.1856 23.4238 57.3632 23.4238 55.1936C23.4238 53.0241 25.1085 51.2017 27.114 51.2017C29.1196 51.2017 30.8042 53.0241 30.8042 55.1936C30.8042 57.3632 29.1196 59.1856 27.114 59.1856ZM27.114 52.9373C25.9909 52.9373 25.0283 53.9787 25.0283 55.1936C25.0283 56.4086 25.9909 57.4499 27.114 57.4499C28.2371 57.4499 29.1998 56.4086 29.1998 55.1936C29.1998 53.9787 28.2371 52.9373 27.114 52.9373Z" fill="black"/>
<path d="M3.6902 60.2269C1.68466 60.2269 0 58.4044 0 56.2349C0 54.0653 1.68466 52.2429 3.6902 52.2429C5.69575 52.2429 7.38041 54.0653 7.38041 56.2349C7.38041 58.4044 5.77597 60.2269 3.6902 60.2269ZM3.6902 54.0653C2.5671 54.0653 1.60444 55.1067 1.60444 56.3217C1.60444 57.5366 2.5671 58.578 3.6902 58.578C4.81331 58.578 5.77597 57.5366 5.77597 56.3217C5.77597 55.1067 4.89353 54.0653 3.6902 54.0653Z" fill="black"/>
<path d="M36.7429 51.1146C34.7374 51.1146 33.0527 49.2921 33.0527 47.1226C33.0527 44.953 34.7374 43.1306 36.7429 43.1306C38.7485 43.1306 40.4331 44.953 40.4331 47.1226C40.4331 49.2921 38.7485 51.1146 36.7429 51.1146ZM36.7429 44.8663C35.6198 44.8663 34.6572 45.9076 34.6572 47.1226C34.6572 48.3375 35.6198 49.3789 36.7429 49.3789C37.866 49.3789 38.8287 48.3375 38.8287 47.1226C38.8287 45.9076 37.866 44.8663 36.7429 44.8663Z" fill="black"/>
<path d="M50.9382 44.3458C48.9327 44.3458 47.248 42.5233 47.248 40.3538C47.248 38.1842 48.9327 36.3618 50.9382 36.3618C52.9438 36.3618 54.6285 38.1842 54.6285 40.3538C54.6285 42.5233 52.9438 44.3458 50.9382 44.3458ZM50.9382 38.1842C49.8151 38.1842 48.8525 39.2256 48.8525 40.4406C48.8525 41.6555 49.8151 42.6969 50.9382 42.6969C52.0614 42.6969 53.024 41.6555 53.024 40.4406C53.024 39.1389 52.0614 38.1842 50.9382 38.1842Z" fill="black"/>
<path d="M56.9578 24.0386C54.9522 24.0386 53.2676 22.2162 53.2676 20.0467C53.2676 17.8771 54.9522 16.0547 56.9578 16.0547C58.9633 16.0547 60.648 17.8771 60.648 20.0467C60.648 22.2162 58.9633 24.0386 56.9578 24.0386ZM56.9578 17.8771C55.8347 17.8771 54.872 18.9185 54.872 20.1334C54.872 21.3484 55.8347 22.3898 56.9578 22.3898C58.0809 22.3898 59.0435 21.3484 59.0435 20.1334C59.0435 18.9185 58.0809 17.8771 56.9578 17.8771Z" fill="black"/>
<path d="M43.0008 7.98393C40.9952 7.98393 39.3105 6.16153 39.3105 3.99198C39.3105 1.82243 40.9952 0 43.0008 0C45.0063 0 46.691 1.82243 46.691 3.99198C46.691 6.16153 45.0063 7.98393 43.0008 7.98393ZM43.0008 1.82243C41.8777 1.82243 40.915 2.86379 40.915 4.07874C40.915 5.29368 41.8777 6.33507 43.0008 6.33507C44.1239 6.33507 45.0865 5.29368 45.0865 4.07874C45.0063 2.77701 44.1239 1.82243 43.0008 1.82243Z" fill="black"/>
<path d="M45.4031 59.0982C43.3976 59.0982 41.7129 57.2758 41.7129 55.1062C41.7129 52.9367 43.3976 51.1143 45.4031 51.1143C47.4086 51.1143 49.0933 52.9367 49.0933 55.1062C49.0933 57.2758 47.4086 59.0982 45.4031 59.0982ZM45.4031 52.8499C44.28 52.8499 43.3173 53.8913 43.3173 55.1062C43.3173 56.3212 44.28 57.3626 45.4031 57.3626C46.5262 57.3626 47.4889 56.3212 47.4889 55.1062C47.4889 53.8913 46.5262 52.8499 45.4031 52.8499Z" fill="black"/>
<path d="M36.9031 68.5582C34.8975 68.5582 33.2129 66.7357 33.2129 64.5662C33.2129 62.3966 34.8975 60.5742 36.9031 60.5742C38.9086 60.5742 40.5933 62.3966 40.5933 64.5662C40.5933 66.7357 38.9086 68.5582 36.9031 68.5582ZM36.9031 62.3099C35.78 62.3099 34.8173 63.3512 34.8173 64.5662C34.8173 65.7811 35.78 66.8225 36.9031 66.8225C38.0262 66.8225 38.9889 65.7811 38.9889 64.5662C38.9889 63.3512 38.0262 62.3099 36.9031 62.3099Z" fill="black"/>
<path d="M57.7586 58.9249C55.753 58.9249 54.0684 57.1024 54.0684 54.9329C54.0684 52.7633 55.753 50.9409 57.7586 50.9409C59.7641 50.9409 61.4488 52.7633 61.4488 54.9329C61.4488 57.1024 59.8443 58.9249 57.7586 58.9249ZM57.7586 52.7633C56.6355 52.7633 55.6728 53.8047 55.6728 55.0197C55.6728 56.2346 56.6355 57.276 57.7586 57.276C58.8817 57.276 59.8443 56.2346 59.8443 55.0197C59.8443 53.8047 58.9619 52.7633 57.7586 52.7633Z" fill="black"/>
<path d="M57.198 72.2891C55.1925 72.2891 53.5078 70.4667 53.5078 68.2971C53.5078 66.1276 55.1925 64.3052 57.198 64.3052C59.2036 64.3052 60.8882 66.1276 60.8882 68.2971C60.8882 70.4667 59.2036 72.2891 57.198 72.2891ZM57.198 66.1276C56.0749 66.1276 55.1122 67.169 55.1122 68.3839C55.1122 69.5989 56.0749 70.6402 57.198 70.6402C58.3211 70.6402 59.2838 69.5989 59.2838 68.3839C59.2838 67.0822 58.3211 66.1276 57.198 66.1276Z" fill="black"/>
<path d="M65.864 42.4368C63.8585 42.4368 62.1738 40.6144 62.1738 38.4449C62.1738 36.2753 63.8585 34.4529 65.864 34.4529C67.8696 34.4529 69.5542 36.2753 69.5542 38.4449C69.5542 40.6144 67.8696 42.4368 65.864 42.4368ZM65.864 36.2753C64.7409 36.2753 63.7783 37.3167 63.7783 38.5316C63.7783 39.7466 64.7409 40.788 65.864 40.788C66.9871 40.788 67.9498 39.7466 67.9498 38.5316C67.8696 37.2299 66.9871 36.2753 65.864 36.2753Z" fill="black"/>
<path d="M73.0027 59.4456C70.9972 59.4456 69.3125 57.6232 69.3125 55.4536C69.3125 53.2841 70.9972 51.4617 73.0027 51.4617C75.0082 51.4617 76.6929 53.2841 76.6929 55.4536C76.6929 57.6232 75.0082 59.4456 73.0027 59.4456ZM73.0027 53.2841C71.8796 53.2841 70.9169 54.3255 70.9169 55.5404C70.9169 56.7554 71.8796 57.7968 73.0027 57.7968C74.1258 57.7968 75.0885 56.7554 75.0885 55.5404C75.0885 54.2387 74.1258 53.2841 73.0027 53.2841Z" fill="black"/>
<path d="M46.5281 80.273C44.5225 80.273 42.8379 78.4506 42.8379 76.281C42.8379 74.1115 44.5225 72.2891 46.5281 72.2891C48.5336 72.2891 50.2183 74.1115 50.2183 76.281C50.2183 78.4506 48.5336 80.273 46.5281 80.273ZM46.5281 74.1115C45.405 74.1115 44.4423 75.1529 44.4423 76.3678C44.4423 77.5828 45.405 78.6242 46.5281 78.6242C47.6512 78.6242 48.6139 77.5828 48.6139 76.3678C48.6139 75.1529 47.6512 74.1115 46.5281 74.1115Z" fill="black"/>
<path d="M36.0203 82.8768C34.0147 82.8768 32.3301 81.0543 32.3301 78.8848C32.3301 76.7152 34.0147 74.8928 36.0203 74.8928C38.0258 74.8928 39.7105 76.7152 39.7105 78.8848C39.7105 81.0543 38.1061 82.8768 36.0203 82.8768ZM36.0203 76.7152C34.8972 76.7152 33.9345 77.7566 33.9345 78.9716C33.9345 80.1865 34.8972 81.2279 36.0203 81.2279C37.1434 81.2279 38.106 80.1865 38.106 78.9716C38.106 77.7566 37.2236 76.7152 36.0203 76.7152Z" fill="black"/>
<path d="M19.1746 81.1414C17.169 81.1414 15.4844 79.319 15.4844 77.1494C15.4844 74.9799 17.169 73.1575 19.1746 73.1575C21.1801 73.1575 22.8648 74.9799 22.8648 77.1494C22.8648 79.319 21.2604 81.1414 19.1746 81.1414ZM19.1746 74.9799C18.0515 74.9799 17.0888 76.0213 17.0888 77.2362C17.0888 78.4512 18.0515 79.4926 19.1746 79.4926C20.2977 79.4926 21.2603 78.4512 21.2603 77.2362C21.2603 75.9345 20.2977 74.9799 19.1746 74.9799Z" fill="black"/>
<path d="M65.78 85.4803C63.7745 85.4803 62.0898 83.6579 62.0898 81.4883C62.0898 79.3188 63.7745 77.4963 65.78 77.4963C67.7856 77.4963 69.4703 79.3188 69.4703 81.4883C69.4703 83.6579 67.7856 85.4803 65.78 85.4803ZM65.78 79.3188C64.6569 79.3188 63.6943 80.3602 63.6943 81.5751C63.6943 82.79 64.6569 83.8314 65.78 83.8314C66.9031 83.8314 67.8658 82.79 67.8658 81.5751C67.8658 80.3602 66.9031 79.3188 65.78 79.3188Z" fill="black"/>
<path d="M83.4285 77.6702C81.4229 77.6702 79.7383 75.8478 79.7383 73.6783C79.7383 71.5087 81.4229 69.6863 83.4285 69.6863C85.434 69.6863 87.1187 71.5087 87.1187 73.6783C87.1187 75.8478 85.434 77.6702 83.4285 77.6702ZM83.4285 71.5087C82.3054 71.5087 81.3427 72.5501 81.3427 73.765C81.3427 74.98 82.3054 76.0214 83.4285 76.0214C84.5516 76.0214 85.5143 74.98 85.5143 73.765C85.5143 72.5501 84.5516 71.5087 83.4285 71.5087Z" fill="black"/>
<path d="M68.991 72.4632C66.9854 72.4632 65.3008 70.6408 65.3008 68.4712C65.3008 66.3017 66.9854 64.4792 68.991 64.4792C70.9965 64.4792 72.6812 66.3017 72.6812 68.4712C72.6812 70.6408 70.9965 72.4632 68.991 72.4632ZM68.991 66.3017C67.8679 66.3017 66.9052 67.3431 66.9052 68.558C66.9052 69.773 67.8679 70.8143 68.991 70.8143C70.1141 70.8143 71.0768 69.773 71.0768 68.558C71.0768 67.2563 70.1141 66.3017 68.991 66.3017Z" fill="black"/>
<path d="M85.0339 39.4861C83.0284 39.4861 81.3438 37.6637 81.3438 35.4942C81.3438 33.3246 83.0284 31.5022 85.0339 31.5022C87.0395 31.5022 88.7242 33.3246 88.7242 35.4942C88.7242 37.6637 87.0395 39.4861 85.0339 39.4861ZM85.0339 33.2378C83.9108 33.2378 82.9482 34.2792 82.9482 35.4942C82.9482 36.7091 83.9108 37.7505 85.0339 37.7505C86.1571 37.7505 87.1197 36.7091 87.1197 35.4942C87.1197 34.2792 86.1571 33.2378 85.0339 33.2378Z" fill="black"/>
<path d="M89.0437 58.5777C87.0382 58.5777 85.3535 56.7553 85.3535 54.5857C85.3535 52.4162 87.0382 50.5938 89.0437 50.5938C91.0493 50.5938 92.7339 52.4162 92.7339 54.5857C92.7339 56.7553 91.0493 58.5777 89.0437 58.5777ZM89.0437 52.4162C87.9206 52.4162 86.958 53.4576 86.958 54.6725C86.958 55.8875 87.9206 56.9289 89.0437 56.9289C90.1668 56.9289 91.1295 55.8875 91.1295 54.6725C91.1295 53.4576 90.1668 52.4162 89.0437 52.4162Z" fill="black"/>
<path d="M112.311 53.3712C110.306 53.3712 108.621 51.5487 108.621 49.3792C108.621 47.2096 110.306 45.3872 112.311 45.3872C114.317 45.3872 116.002 47.2096 116.002 49.3792C116.002 51.5487 114.317 53.3712 112.311 53.3712ZM112.311 47.1228C111.188 47.1228 110.226 48.1642 110.226 49.3792C110.226 50.5941 111.188 51.6355 112.311 51.6355C113.434 51.6355 114.397 50.5941 114.397 49.3792C114.397 48.1642 113.434 47.1228 112.311 47.1228Z" fill="black"/>
<path d="M96.2664 24.7325C94.2608 24.7325 92.5762 22.9101 92.5762 20.7405C92.5762 18.571 94.2608 16.7485 96.2664 16.7485C98.2719 16.7485 99.9566 18.571 99.9566 20.7405C99.9566 22.9101 98.2719 24.7325 96.2664 24.7325ZM96.2664 18.4842C95.1433 18.4842 94.1806 19.5256 94.1806 20.7405C94.1806 21.9555 95.1433 22.9968 96.2664 22.9968C97.3895 22.9968 98.3521 21.9555 98.3521 20.7405C98.3521 19.5256 97.3895 18.4842 96.2664 18.4842Z" fill="black"/>
<path d="M44.1218 92.4229C42.1163 92.4229 40.4316 90.6005 40.4316 88.4309C40.4316 86.2614 42.1163 84.439 44.1218 84.439C46.1274 84.439 47.812 86.2614 47.812 88.4309C47.812 90.6005 46.1274 92.4229 44.1218 92.4229ZM44.1218 86.2614C42.9987 86.2614 42.0361 87.3028 42.0361 88.5177C42.0361 89.7327 42.9987 90.7741 44.1218 90.7741C45.2449 90.7741 46.2076 89.7327 46.2076 88.5177C46.2076 87.3028 45.2449 86.2614 44.1218 86.2614Z" fill="black"/>
<path d="M35.2176 102.836C33.212 102.836 31.5273 101.014 31.5273 98.8445C31.5273 96.675 33.212 94.8525 35.2176 94.8525C37.2231 94.8525 38.9078 96.675 38.9078 98.8445C38.9078 101.014 37.3033 102.836 35.2176 102.836ZM35.2176 96.675C34.0944 96.675 33.1318 97.7164 33.1318 98.9313C33.1318 100.146 34.0944 101.188 35.2176 101.188C36.3407 101.188 37.3033 100.146 37.3033 98.9313C37.3033 97.6296 36.4209 96.675 35.2176 96.675Z" fill="black"/>
<path d="M55.3543 108.044C53.3487 108.044 51.6641 106.221 51.6641 104.052C51.6641 101.882 53.3487 100.06 55.3543 100.06C57.3598 100.06 59.0445 101.882 59.0445 104.052C59.0445 106.221 57.3598 108.044 55.3543 108.044ZM55.3543 101.882C54.2312 101.882 53.2685 102.924 53.2685 104.139C53.2685 105.354 54.2312 106.395 55.3543 106.395C56.4774 106.395 57.44 105.354 57.44 104.139C57.3598 102.924 56.4774 101.882 55.3543 101.882Z" fill="black"/>
<path d="M73.0027 98.4974C70.9972 98.4974 69.3125 96.675 69.3125 94.5054C69.3125 92.3359 70.9972 90.5134 73.0027 90.5134C75.0082 90.5134 76.6929 92.3359 76.6929 94.5054C76.6929 96.675 75.0082 98.4974 73.0027 98.4974ZM73.0027 92.3359C71.8796 92.3359 70.9169 93.3772 70.9169 94.5922C70.9169 95.8071 71.8796 96.8485 73.0027 96.8485C74.1258 96.8485 75.0885 95.8071 75.0885 94.5922C75.0885 93.2905 74.1258 92.3359 73.0027 92.3359Z" fill="black"/>
<path d="M100.276 92.4229C98.2706 92.4229 96.5859 90.6005 96.5859 88.4309C96.5859 86.2614 98.2706 84.439 100.276 84.439C102.282 84.439 103.966 86.2614 103.966 88.4309C103.966 90.6005 102.282 92.4229 100.276 92.4229ZM100.276 86.2614C99.153 86.2614 98.1904 87.3028 98.1904 88.5177C98.1904 89.7327 99.153 90.7741 100.276 90.7741C101.399 90.7741 102.362 89.7327 102.362 88.5177C102.362 87.3028 101.399 86.2614 100.276 86.2614Z" fill="black"/>
<path d="M106.696 71.595C104.691 71.595 103.006 69.7726 103.006 67.6031C103.006 65.4335 104.691 63.6111 106.696 63.6111C108.702 63.6111 110.386 65.4335 110.386 67.6031C110.386 69.7726 108.702 71.595 106.696 71.595ZM106.696 65.4335C105.573 65.4335 104.61 66.4749 104.61 67.6898C104.61 68.9048 105.573 69.9462 106.696 69.9462C107.819 69.9462 108.782 68.9048 108.782 67.6898C108.782 66.3881 107.819 65.4335 106.696 65.4335Z" fill="black"/>
</svg>
