<svg width="116" height="109" viewBox="0 0 116 109" fill="none" xmlns="http://www.w3.org/2000/svg">
<path d="M3.6953 52.3364C1.68699 52.3364 0 54.1591 0 56.329C0 58.4988 1.68699 60.3215 3.6953 60.3215C5.70361 60.3215 7.39059 58.4988 7.39059 56.329C7.39059 54.1591 5.70361 52.3364 3.6953 52.3364ZM3.6953 58.4988C2.57064 58.4988 1.60665 57.4573 1.60665 56.2422C1.60665 55.027 2.57064 53.9855 3.6953 53.9855C4.81995 53.9855 5.78394 55.027 5.78394 56.2422C5.78394 57.4573 4.81995 58.4988 3.6953 58.4988Z" fill="black"/>
<path d="M36.7109 43.1362C34.7026 43.1362 33.0156 44.9589 33.0156 47.1288C33.0156 49.2986 34.7026 51.1213 36.7109 51.1213C38.7192 51.1213 40.4062 49.2986 40.4062 47.1288C40.4062 44.9589 38.7996 43.1362 36.7109 43.1362ZM36.7109 49.3854C35.5863 49.3854 34.6223 48.3439 34.6223 47.1288C34.6223 45.9136 35.5863 44.8721 36.7109 44.8721C37.8356 44.8721 38.7995 45.9136 38.7995 47.1288C38.7995 48.3439 37.9159 49.3854 36.7109 49.3854Z" fill="black"/>
<path d="M42.9785 7.98503C44.9868 7.98503 46.6738 6.16237 46.6738 3.99253C46.6738 1.82268 44.9868 0 42.9785 0C40.9702 0 39.2832 1.82268 39.2832 3.99253C39.2832 6.16237 40.8899 7.98503 42.9785 7.98503ZM42.9785 1.82268C44.1032 1.82268 45.0671 2.86418 45.0671 4.0793C45.0671 5.29441 44.1032 6.33595 42.9785 6.33595C41.8538 6.33595 40.8899 5.29441 40.8899 4.0793C40.8899 2.77739 41.7735 1.82268 42.9785 1.82268Z" fill="black"/>
<path d="M112.386 45.3932C110.377 45.3932 108.69 47.2159 108.69 49.3857C108.69 50.7744 109.413 52.0764 110.458 52.7707L107.245 63.7067C107.084 63.7067 106.923 63.6199 106.763 63.6199C105.959 63.6199 105.236 63.8803 104.674 64.4011L92.7043 54.1594C92.4633 52.1632 90.937 50.6877 89.0894 50.6877L86.0368 39.3176C87.5631 38.7969 88.6877 37.3214 88.6877 35.4987C88.6877 34.3704 88.2861 33.4157 87.5631 32.7213L94.6323 24.3023C95.1143 24.5627 95.6766 24.7363 96.239 24.7363C98.2473 24.7363 99.9343 22.9136 99.9343 20.7437C99.9343 18.5739 98.2473 16.7512 96.239 16.7512C94.2307 16.7512 92.5437 18.5739 92.5437 20.7437C92.5437 21.6985 92.865 22.4796 93.347 23.174L86.1974 31.7666C85.7958 31.593 85.3941 31.5062 84.9924 31.5062C82.9841 31.5062 81.2972 33.3289 81.2972 35.4987C81.2972 37.495 82.5825 39.0573 84.3498 39.4044L87.4024 51.0348C86.3581 51.5556 85.6351 52.5971 85.3941 53.8122L76.4772 54.5934C76.0756 52.8575 74.6296 51.5556 72.9426 51.5556C71.1753 51.5556 69.7293 52.8575 69.4079 54.5934L61.3747 54.1594C61.0534 52.3367 59.5271 51.0348 57.7597 51.0348C55.7514 51.0348 54.0645 52.8575 54.0645 55.0274C54.0645 57.1972 55.7514 59.0199 57.7597 59.0199C59.5271 59.0199 60.973 57.718 61.2944 55.9821L69.3276 56.4161C69.6489 58.2387 71.1753 59.5406 72.9426 59.5406C74.7099 59.5406 76.1559 58.1519 76.5575 56.4161L85.4744 55.6349C85.8761 57.3708 87.3221 58.6727 89.0091 58.6727C90.5354 58.6727 91.8207 57.6312 92.383 56.2425L103.469 65.7898C103.148 66.3974 102.987 67.0049 102.987 67.6993C102.987 69.8691 104.674 71.6918 106.682 71.6918C108.69 71.6918 110.377 69.8691 110.377 67.6993C110.377 66.3106 109.735 65.0954 108.69 64.4011L111.904 53.3783C112.064 53.3783 112.145 53.4651 112.305 53.4651C114.314 53.4651 116.001 51.6424 116.001 49.4725C116.001 47.3027 114.474 45.3932 112.386 45.3932ZM96.3193 18.4871C97.444 18.4871 98.408 19.5286 98.408 20.7437C98.408 21.9589 97.444 23.0004 96.3193 23.0004C95.1947 23.0004 94.2307 21.9589 94.2307 20.7437C94.2307 19.5286 95.1947 18.4871 96.3193 18.4871ZM82.9841 35.4987C82.9841 34.2836 83.9481 33.2421 85.0728 33.2421C86.1974 33.2421 87.1614 34.2836 87.1614 35.4987C87.1614 36.7138 86.1974 37.7554 85.0728 37.7554C83.9481 37.7554 82.9841 36.7138 82.9841 35.4987ZM57.8401 57.1972C56.7154 57.1972 55.7514 56.1557 55.7514 54.9406C55.7514 53.7254 56.7154 52.6839 57.8401 52.6839C58.9647 52.6839 59.9287 53.7254 59.9287 54.9406C59.8484 56.2425 58.9647 57.1972 57.8401 57.1972ZM73.0229 57.718C71.8983 57.718 70.9343 56.6764 70.9343 55.4613C70.9343 54.2462 71.8983 53.2047 73.0229 53.2047C74.1476 53.2047 75.1116 54.2462 75.1116 55.4613C75.1116 56.6764 74.1476 57.718 73.0229 57.718ZM89.0894 56.85C87.9647 56.85 87.0007 55.8085 87.0007 54.5934C87.0007 53.3783 87.9647 52.3367 89.0894 52.3367C90.214 52.3367 91.178 53.3783 91.178 54.5934C91.178 55.8085 90.214 56.85 89.0894 56.85ZM108.851 67.6125C108.851 68.8276 107.887 69.8691 106.763 69.8691C105.638 69.8691 104.674 68.8276 104.674 67.6125C104.674 66.3974 105.638 65.3558 106.763 65.3558C107.887 65.4426 108.851 66.3974 108.851 67.6125ZM112.386 51.6424C111.261 51.6424 110.297 50.6009 110.297 49.3857C110.297 48.1706 111.261 47.1291 112.386 47.1291C113.51 47.1291 114.474 48.1706 114.474 49.3857C114.474 50.6009 113.591 51.6424 112.386 51.6424Z" fill="black"/>
<path d="M100.334 84.5371C98.3257 84.5371 96.6387 86.3598 96.6387 88.5296C96.6387 90.6995 98.3257 92.5222 100.334 92.5222C102.342 92.5222 104.029 90.6995 104.029 88.5296C104.029 86.3598 102.342 84.5371 100.334 84.5371ZM100.334 90.6995C99.2093 90.6995 98.2453 89.658 98.2453 88.4428C98.2453 87.2277 99.2093 86.1862 100.334 86.1862C101.459 86.1862 102.423 87.2277 102.423 88.4428C102.423 89.658 101.459 90.6995 100.334 90.6995Z" fill="black"/>
<path d="M87.1601 58.1518L82.9025 69.869C81.9386 70.0426 81.1352 70.5633 80.5729 71.3445L72.62 67.9595C72.379 66.05 70.8527 64.5746 69.005 64.5746C67.2377 64.5746 65.7917 65.8765 65.4704 67.6991L60.8111 67.6123C60.4095 65.7897 58.9635 64.4878 57.1962 64.4878C56.4732 64.4878 55.7502 64.7481 55.1075 65.1821L48.5203 57.2839C48.8416 56.6763 49.0826 55.9819 49.0826 55.2876C49.0826 53.8989 48.4399 52.6838 47.3956 51.9894L50.2072 44.4383C50.4482 44.5251 50.7696 44.5251 51.0106 44.5251C52.7779 44.5251 54.3042 43.1365 54.6255 41.3138L62.4178 39.6647C62.8194 41.3138 64.2654 42.6157 65.9524 42.6157C67.9607 42.6157 69.6477 40.793 69.6477 38.6232C69.6477 36.4533 67.9607 34.6306 65.9524 34.6306C65.3097 34.6306 64.6671 34.8042 64.1851 35.1514L64.9081 34.7174L59.3651 23.2606C60.1685 22.5663 60.7308 21.438 60.7308 20.2228C60.7308 18.053 59.0438 16.2303 57.0355 16.2303C55.0272 16.2303 53.3402 18.053 53.3402 20.2228C53.3402 22.3927 55.0272 24.2154 57.0355 24.2154C57.3568 24.2154 57.5978 24.1286 57.9192 24.1286L63.4621 35.5854L64.1047 35.2382C63.2211 35.8458 62.5784 36.8005 62.3374 37.9288L54.5452 39.5779C54.1435 37.9288 52.6975 36.6269 51.0106 36.6269C49.0023 36.6269 47.3153 38.4496 47.3153 40.6194C47.3153 41.9213 47.8776 42.9629 48.7613 43.744L45.9496 51.3819C45.789 51.3819 45.6283 51.2951 45.4676 51.2951C43.7003 51.2951 42.174 52.6838 41.8527 54.5065L30.7668 55.8084C30.7668 55.6348 30.8471 55.548 30.8471 55.3744C30.8471 53.2045 29.1601 51.3819 27.1518 51.3819C26.6698 51.3819 26.1878 51.4687 25.7059 51.7291L20.5646 45.3063C20.9662 44.6987 21.1269 43.9176 21.1269 43.1364C21.1269 42.6157 21.0466 42.1817 20.8859 41.7478L32.0521 36.6269C32.6948 37.3212 33.6588 37.842 34.7031 37.842C36.7114 37.842 38.3984 36.0194 38.3984 33.8495C38.3984 31.6797 36.7114 29.857 34.7031 29.857C34.3818 29.857 34.0604 29.9438 33.7391 30.0306L26.3485 18.5738C26.9912 17.8794 27.3928 16.9247 27.3928 15.8832C27.3928 13.7133 25.7059 11.8906 23.6975 11.8906C21.6892 11.8906 20.0022 13.7133 20.0022 15.8832C20.0022 18.053 21.6892 19.8757 23.6975 19.8757C24.1795 19.8757 24.5812 19.7889 24.9829 19.6153L32.2128 30.8985C31.4095 31.5929 30.9275 32.7212 30.9275 33.9363C30.9275 34.3703 31.0078 34.8042 31.1684 35.2382L20.0022 40.4458C19.3596 39.7515 18.4759 39.3175 17.4316 39.3175C15.4233 39.3175 13.7363 41.1402 13.7363 43.31C13.7363 45.4799 15.4233 47.3026 17.4316 47.3026C18.1546 47.3026 18.7973 47.0422 19.3596 46.695L24.3402 52.9442C23.7779 53.6385 23.3762 54.5933 23.3762 55.548C23.3762 57.7178 25.0632 59.5405 27.0715 59.5405C28.3568 59.5405 29.4011 58.8462 30.0438 57.8046L41.7723 56.4159C41.933 57.0235 42.174 57.5442 42.4953 57.9782L38.6394 61.45C38.077 61.1028 37.5147 60.9292 36.8721 60.9292C34.8637 60.9292 33.1768 62.7519 33.1768 64.9217C33.1768 65.4425 33.2571 65.9633 33.4178 66.3972L21.3679 74.4691C20.7252 73.9483 20.0022 73.6011 19.1186 73.6011C17.1103 73.6011 15.4233 75.4238 15.4233 77.5936C15.4233 79.7635 17.1103 81.5862 19.1186 81.5862C21.1269 81.5862 22.8139 79.7635 22.8139 77.5936C22.8139 76.9861 22.6532 76.3785 22.4122 75.8578L34.3817 67.8727C34.8637 68.3067 35.3457 68.6539 35.9884 68.8274L35.2654 75.5106C33.5784 75.8578 32.2931 77.5069 32.2931 79.4163C32.2931 81.3258 33.4981 82.8881 35.1048 83.2352L34.3817 95.4732C32.6948 95.8204 31.4898 97.4695 31.4898 99.3789C31.4898 101.549 33.1768 103.371 35.1851 103.371C37.1934 103.371 38.8804 101.549 38.8804 99.3789C38.8804 97.4695 37.6754 95.9072 36.0687 95.56L36.7917 83.322C38.4787 82.9749 39.6837 81.3258 39.6837 79.4163C39.6837 77.5936 38.4787 76.0314 36.8721 75.5974L37.595 68.9142C39.282 68.5671 40.5673 66.918 40.5673 65.0085C40.5673 64.1406 40.3264 63.3594 39.9247 62.7519L43.861 59.1933C44.343 59.4537 44.825 59.5405 45.3873 59.5405C46.1103 59.5405 46.8333 59.2801 47.3956 58.8461L53.9829 66.7444C53.6615 67.352 53.4205 68.0463 53.4205 68.7407C53.4205 69.1746 53.5009 69.6086 53.6615 70.0426L48.4399 73.4275C47.8776 72.9936 47.1546 72.7332 46.3513 72.7332C44.343 72.7332 42.656 74.5559 42.656 76.7257C42.656 78.1144 43.2987 79.3295 44.343 80.0239L43.2986 84.9711C41.6117 85.3183 40.246 86.8806 40.246 88.8769C40.246 91.0467 41.933 92.8694 43.9413 92.8694C44.343 92.8694 44.825 92.7826 45.2266 92.609L52.2959 102.156C51.8139 102.851 51.5729 103.632 51.5729 104.5C51.5729 106.67 53.2599 108.492 55.2682 108.492C57.2765 108.492 58.9635 106.67 58.9635 104.5C58.9635 102.33 57.2765 100.507 55.2682 100.507C54.6255 100.507 54.0632 100.681 53.5812 101.028L46.6726 91.6543C47.3153 90.9599 47.7169 89.9184 47.7169 88.8769C47.7169 87.0542 46.5923 85.5787 44.9856 85.0579L45.9496 80.6314C46.1103 80.6314 46.2709 80.7182 46.4316 80.7182C48.4399 80.7182 50.1269 78.8955 50.1269 76.7257C50.1269 76.0313 49.9662 75.337 49.6449 74.7295L54.5452 71.5181C55.1878 72.2992 56.1518 72.7332 57.1962 72.7332C58.9635 72.7332 60.4095 71.4313 60.7308 69.6086L65.3901 69.6954C65.6311 71.0841 66.595 72.1256 67.8 72.5596L65.2294 77.9408C63.4621 78.2012 62.0964 79.8503 62.0964 81.8465C62.0964 83.8428 63.5424 85.4919 65.3097 85.7523L69.8083 92.8694C69.487 93.4769 69.3263 94.1713 69.3263 94.8656C69.3263 97.0355 71.0133 98.8582 73.0216 98.8582C75.0299 98.8582 76.7169 97.0355 76.7169 94.8656C76.7169 92.6958 75.0299 90.8731 73.0216 90.8731C72.2986 90.8731 71.5757 91.1335 71.0133 91.5675L67.1574 85.4919C68.523 84.8843 69.487 83.4956 69.487 81.8465C69.487 80.1107 68.4427 78.6352 66.9967 78.1144L69.5674 72.7332C70.933 72.4728 72.138 71.4313 72.5396 70.0426L79.9302 73.2539C79.8499 73.5143 79.8499 73.7747 79.8499 74.1219C79.8499 76.2917 81.5369 78.1144 83.5452 78.1144C85.5535 78.1144 87.2405 76.2917 87.2405 74.1219C87.2405 72.386 86.1158 70.9105 84.6698 70.3898L88.7668 59.1933L87.1601 58.1518ZM56.9552 22.3059C55.8305 22.3059 54.8665 21.2644 54.8665 20.0493C54.8665 18.8342 55.8305 17.7926 56.9552 17.7926C58.0798 17.7926 59.0438 18.8342 59.0438 20.0493C59.0438 21.2644 58.1601 22.3059 56.9552 22.3059ZM65.8721 36.2797C66.9967 36.2797 67.9607 37.3213 67.9607 38.5364C67.9607 39.7515 66.9967 40.793 65.8721 40.793C64.7474 40.793 63.7834 39.7515 63.7834 38.5364C63.7834 37.2345 64.7474 36.2797 65.8721 36.2797ZM50.9302 38.1892C52.0549 38.1892 53.0189 39.2307 53.0189 40.4458C53.0189 41.661 52.0549 42.7025 50.9302 42.7025C49.8056 42.7025 48.8416 41.661 48.8416 40.4458C48.8416 39.1439 49.8056 38.1892 50.9302 38.1892ZM23.6975 17.8794C22.5729 17.8794 21.6089 16.8379 21.6089 15.6228C21.6089 14.4077 22.5729 13.3661 23.6975 13.3661C24.8222 13.3661 25.7862 14.4077 25.7862 15.6228C25.7862 16.9247 24.8222 17.8794 23.6975 17.8794ZM34.6228 31.4193C35.7474 31.4193 36.7114 32.4608 36.7114 33.6759C36.7114 34.891 35.7474 35.9326 34.6228 35.9326C33.4981 35.9326 32.5341 34.891 32.5341 33.6759C32.5341 32.4608 33.4981 31.4193 34.6228 31.4193ZM17.4316 45.2195C16.307 45.2195 15.343 44.178 15.343 42.9629C15.343 41.7478 16.307 40.7062 17.4316 40.7062C18.5563 40.7062 19.5202 41.7478 19.5202 42.9629C19.5202 44.178 18.5563 45.2195 17.4316 45.2195ZM28.9995 55.8084L28.9191 55.982C28.5978 56.7631 27.8748 57.3707 26.9912 57.3707C25.8665 57.3707 24.9025 56.3291 24.9025 55.114C24.9025 53.8989 25.8665 52.8574 26.9912 52.8574C28.1158 52.8574 29.0798 53.8989 29.0798 55.114C29.0798 55.4612 29.0798 55.6348 28.9995 55.8084ZM19.1186 79.4163C17.9939 79.4163 17.03 78.3748 17.03 77.1597C17.03 75.9446 17.9939 74.903 19.1186 74.903C20.2432 74.903 21.2072 75.9446 21.2072 77.1597C21.2072 78.4616 20.3236 79.4163 19.1186 79.4163ZM37.2737 98.945C37.2737 100.16 36.3097 101.202 35.1851 101.202C34.0604 101.202 33.0964 100.16 33.0964 98.945C33.0964 97.7298 34.0604 96.6883 35.1851 96.6883C36.3901 96.6883 37.2737 97.643 37.2737 98.945ZM38.077 78.8955C38.077 80.1107 37.113 81.1522 35.9884 81.1522C34.8637 81.1522 33.8998 80.1107 33.8998 78.8955C33.8998 77.6804 34.8637 76.6389 35.9884 76.6389C37.1934 76.7257 38.077 77.6804 38.077 78.8955ZM36.8721 66.8312C35.7474 66.8312 34.7834 65.7897 34.7834 64.5746C34.7834 63.3594 35.7474 62.3179 36.8721 62.3179C37.9967 62.3179 38.9607 63.3594 38.9607 64.5746C38.9607 65.7897 38.077 66.8312 36.8721 66.8312ZM45.3873 57.3707C44.2626 57.3707 43.2986 56.3291 43.2986 55.114C43.2986 53.8989 44.2626 52.8574 45.3873 52.8574C46.5119 52.8574 47.4759 53.8989 47.4759 55.114C47.4759 56.3291 46.5119 57.3707 45.3873 57.3707ZM55.3485 101.896C56.4732 101.896 57.4372 102.937 57.4372 104.153C57.4372 105.368 56.4732 106.409 55.3485 106.409C54.2239 106.409 53.2599 105.368 53.2599 104.153C53.2599 102.937 54.2239 101.896 55.3485 101.896ZM46.1103 88.5297C46.1103 89.7448 45.1463 90.7863 44.0216 90.7863C42.897 90.7863 41.933 89.7448 41.933 88.5297C41.933 87.3146 42.897 86.273 44.0216 86.273C45.2266 86.273 46.1103 87.2278 46.1103 88.5297ZM46.5119 78.5484C45.3873 78.5484 44.4233 77.5068 44.4233 76.2917C44.4233 75.0766 45.3873 74.0351 46.5119 74.0351C47.6366 74.0351 48.6006 75.0766 48.6006 76.2917C48.6006 77.5068 47.6366 78.5484 46.5119 78.5484ZM57.1962 70.5633C56.0715 70.5633 55.1075 69.5218 55.1075 68.3067C55.1075 67.0916 56.0715 66.0501 57.1962 66.0501C58.3208 66.0501 59.2848 67.0916 59.2848 68.3067C59.2848 69.6086 58.3208 70.5633 57.1962 70.5633ZM73.0216 92.3486C74.1463 92.3486 75.1103 93.3901 75.1103 94.6053C75.1103 95.8204 74.1463 96.8619 73.0216 96.8619C71.897 96.8619 70.933 95.8204 70.933 94.6053C70.933 93.3033 71.897 92.3486 73.0216 92.3486ZM67.8804 81.4994C67.8804 82.7145 66.9164 83.756 65.7917 83.756C64.6671 83.756 63.7031 82.7145 63.7031 81.4994C63.7031 80.2842 64.6671 79.2427 65.7917 79.2427C66.9164 79.2427 67.8804 80.2842 67.8804 81.4994ZM69.005 70.7369C67.8804 70.7369 66.9164 69.6954 66.9164 68.4803C66.9164 67.2652 67.8804 66.2236 69.005 66.2236C70.1297 66.2236 71.0937 67.2652 71.0937 68.4803C71.0937 69.7822 70.1297 70.7369 69.005 70.7369ZM85.5535 73.6879C85.5535 74.903 84.5895 75.9446 83.4649 75.9446C82.3402 75.9446 81.3762 74.903 81.3762 73.6879C81.3762 72.4728 82.3402 71.4313 83.4649 71.4313C84.5895 71.4313 85.5535 72.4728 85.5535 73.6879Z" fill="black"/>
</svg>
