<svg width="73" height="80" viewBox="0 0 73 80" fill="none" xmlns="http://www.w3.org/2000/svg">
<path d="M36.2828 35.1685C34.2534 35.1685 32.5488 37.0102 32.5488 39.2028C32.5488 41.3953 34.2534 43.237 36.2828 43.237C38.3121 43.237 40.0167 41.3953 40.0167 39.2028C40.0167 37.0102 38.3121 35.1685 36.2828 35.1685ZM36.2828 41.3953C35.1463 41.3953 34.1723 40.3429 34.1723 39.115C34.1723 37.8872 35.1463 36.8348 36.2828 36.8348C37.4192 36.8348 38.3933 37.8872 38.3933 39.115C38.3933 40.4306 37.4192 41.3953 36.2828 41.3953Z" fill="black"/>
<path d="M68.7533 35.1684C68.3475 35.1684 67.9416 35.2561 67.6169 35.4315C64.37 31.5726 61.1231 29.8186 56.8209 29.8186C56.8209 29.7309 56.7398 29.7309 56.7398 29.6432C59.0938 26.6614 60.0678 23.241 59.9055 18.7682C60.7984 18.6805 61.529 18.3297 62.1783 17.6281C63.6395 16.0494 63.6395 13.5061 62.1783 11.9274C61.4478 11.1381 60.5549 10.7873 59.5808 10.7873C58.6067 10.7873 57.6326 11.2258 56.9833 11.9274C56.4151 12.5413 56.0904 13.3307 55.928 14.12C51.6259 13.9446 48.379 14.997 45.5379 17.7158C45.3756 17.6281 45.1321 17.5403 44.9697 17.4526C44.8074 12.9798 43.1839 9.47177 39.5311 6.0514C39.8558 5.43748 40.0182 4.82358 40.0182 4.03427C40.0182 1.84172 38.3135 0 36.2842 0C34.2549 0 32.5503 1.84172 32.5503 4.03427C32.5503 4.73588 32.7126 5.3498 33.0373 5.96372C29.3845 9.38409 27.6799 12.8922 27.5176 17.365C27.274 17.4527 27.1117 17.4527 26.8682 17.5404C23.7836 14.3831 20.2932 13.1552 15.504 13.5061C15.3417 12.8921 15.017 12.3659 14.6111 11.9274C13.15 10.3488 10.796 10.3488 9.33487 11.9274C7.87376 13.5061 7.87376 16.0494 9.33487 17.6281C9.90308 18.242 10.7148 18.6805 11.5265 18.7682C11.3642 23.3287 12.3382 26.8368 14.7734 29.8186C10.8771 30.0817 7.79258 31.7481 4.78919 35.3438C4.4645 35.2561 4.05863 35.1684 3.73394 35.1684C1.70462 35.1684 0 37.0102 0 39.2028C0 41.3953 1.70462 43.237 3.73394 43.237C4.1398 43.237 4.4645 43.1493 4.78919 43.0616C7.87375 46.7451 10.9583 48.4114 15.017 48.5868C15.0981 48.6745 15.0981 48.7623 15.1793 48.85C12.4194 52.0072 11.283 55.603 11.5265 60.4266C10.7148 60.5143 9.98425 60.8651 9.33487 61.5667C7.87376 63.1454 7.87376 65.6887 9.33487 67.2674C10.0654 68.0567 11.0395 68.4075 11.9324 68.4075C12.8253 68.4075 13.7994 68.0567 14.5299 67.2674C14.9358 66.8288 15.2605 66.2149 15.4228 65.6887C15.9099 65.6887 16.3969 65.7764 16.8839 65.7764C20.9426 65.7764 24.0271 64.4609 26.787 61.6544C27.0305 61.7421 27.1929 61.8298 27.4364 61.8298C27.5987 66.3026 29.3034 69.8107 32.9561 73.2311C32.6315 73.7573 32.4691 74.4589 32.4691 75.1605C32.4691 77.3531 34.1737 79.1948 36.2031 79.1948C38.2324 79.1948 39.937 77.3531 39.937 75.1605C39.937 74.4589 39.7747 73.7572 39.45 73.1433C43.0216 69.723 44.7262 66.3026 44.8885 61.7421C45.132 61.6544 45.2944 61.5667 45.4567 61.479C48.0543 63.9347 50.9765 65.0748 54.7916 65.0748C55.1163 65.0748 55.441 65.0748 55.8469 65.0748C56.0092 65.8641 56.3339 66.6534 56.9021 67.2674C57.6327 68.0567 58.5256 68.4075 59.4996 68.4075C60.4737 68.4075 61.4478 67.969 62.0972 67.2674C63.5583 65.6887 63.5583 63.1454 62.0972 61.5667C61.4478 60.8651 60.7172 60.5143 59.8243 60.4266C59.9867 55.9538 59.0126 52.5334 56.6586 49.5516C56.8209 49.2885 56.9833 48.9376 57.0644 48.5868C61.2043 48.4114 64.37 46.7451 67.5357 42.9739C67.9416 43.1493 68.2663 43.237 68.7533 43.237C70.7826 43.237 72.4873 41.3953 72.4873 39.2028C72.4873 37.0102 70.8638 35.1684 68.7533 35.1684ZM51.5447 31.8358C51.5447 30.6079 52.5188 29.5555 53.6552 29.5555C54.7916 29.5555 55.7657 30.6079 55.7657 31.8358C55.7657 33.0636 54.7916 34.116 53.6552 34.116C52.5188 34.0283 51.5447 33.0636 51.5447 31.8358ZM58.0385 13.1553C58.4444 12.7168 58.9314 12.5414 59.4996 12.5414C60.0678 12.5414 60.5549 12.8045 60.9608 13.1553C61.7725 14.0323 61.7725 15.4355 60.9608 16.3125C60.149 17.1895 58.7691 17.1895 58.0385 16.3125C57.2268 15.4355 57.2268 14.0323 58.0385 13.1553ZM56.0092 15.874C56.1716 16.4879 56.4963 17.1018 56.9021 17.6281C57.308 18.0666 57.7138 18.3297 58.282 18.5051C58.4444 22.7148 57.7138 25.6966 55.6033 28.4154C55.0351 28.0646 54.3857 27.8015 53.7364 27.8015C51.707 27.8015 50.0024 29.6432 50.0024 31.8358C50.0024 32.5374 50.1648 33.239 50.5706 33.8529C48.379 36.3086 44.9697 37.9749 42.8592 38.3257C42.5345 35.3439 40.424 32.8882 37.7453 32.2743C38.1512 30.0817 39.5311 26.5737 41.6416 24.2934C42.291 24.9073 43.1027 25.2581 44.0768 25.2581C46.1061 25.2581 47.8108 23.4164 47.8108 21.2239C47.8108 20.2591 47.4861 19.3821 46.9178 18.6805C49.353 16.4879 52.1129 15.6109 56.0092 15.874ZM36.2842 44.4649C33.6055 44.4649 31.4138 42.0969 31.4138 39.2028C31.4138 36.3086 33.6055 33.9406 36.2842 33.9406C38.9629 33.9406 41.1546 36.3086 41.1546 39.2028C41.1546 42.0969 38.9629 44.4649 36.2842 44.4649ZM43.9956 19.0313C45.132 19.0313 46.1061 20.0837 46.1061 21.3115C46.1061 22.5394 45.132 23.5918 43.9956 23.5918C42.8592 23.5918 41.8852 22.5394 41.8852 21.3115C41.8852 19.996 42.8592 19.0313 43.9956 19.0313ZM36.2842 1.75404C37.4206 1.75404 38.3947 2.80644 38.3947 4.03427C38.3947 5.26209 37.4206 6.31455 36.2842 6.31455C35.1478 6.31455 34.1737 5.26209 34.1737 4.03427C34.1737 2.80644 35.1478 1.75404 36.2842 1.75404ZM34.0926 7.27925C34.7419 7.80546 35.4725 8.06858 36.2842 8.06858C37.0959 8.06858 37.8265 7.80544 38.3947 7.36693C41.6416 10.4365 43.1027 13.4184 43.2651 17.365C41.5604 17.7158 40.2617 19.3821 40.2617 21.3115C40.2617 21.9255 40.3429 22.4517 40.5864 22.9779C38.4759 25.1705 37.0148 28.24 36.3654 30.6957C35.6348 28.1523 34.0925 24.9073 31.8197 22.6271C31.9821 22.1886 32.0632 21.7501 32.0632 21.3115C32.0632 19.3821 30.8456 17.8034 29.141 17.4526C29.3034 13.3307 30.7645 10.3488 34.0926 7.27925ZM28.3293 19.0313C29.4657 19.0313 30.4398 20.0837 30.4398 21.3115C30.4398 22.5394 29.4657 23.5918 28.3293 23.5918C27.1929 23.5918 26.2188 22.5394 26.2188 21.3115C26.2188 19.996 27.1929 19.0313 28.3293 19.0313ZM10.5525 13.1553C10.9583 12.7168 11.5265 12.4537 12.0136 12.4537C12.5006 12.4537 13.0688 12.6291 13.4747 13.1553C14.2864 14.0323 14.2864 15.4355 13.4747 16.3125C12.663 17.1895 11.3642 17.1895 10.5525 16.3125C9.74073 15.4355 9.74073 14.0323 10.5525 13.1553ZM13.2312 18.5051C13.7182 18.3297 14.2864 17.9789 14.6923 17.5404C15.2605 16.9265 15.6663 16.0494 15.7475 15.2601C19.9685 14.997 22.9719 15.9618 25.6506 18.5928C25.0824 19.2944 24.6765 20.2591 24.6765 21.2239C24.6765 23.4164 26.3811 25.2581 28.4105 25.2581C29.4657 25.2581 30.3586 24.8196 31.008 24.0303C33.1996 26.3105 34.7419 29.9064 35.1478 32.1866C32.3068 32.8005 30.1151 35.3438 29.8716 38.5011C27.6799 38.0626 24.0271 36.3085 21.9978 33.6775L21.9166 33.7652C22.079 33.3267 22.1602 32.8882 22.1602 32.4497C22.1602 30.2571 20.4555 28.4154 18.4262 28.4154C17.7768 28.4154 17.1274 28.5908 16.5592 28.9416C13.9617 26.2229 12.9876 22.9779 13.2312 18.5051ZM18.345 30.2571C19.4815 30.2571 20.4555 31.3095 20.4555 32.5374C20.4555 33.7652 19.4815 34.8177 18.345 34.8177C17.2086 34.8177 16.2346 33.7652 16.2346 32.5374C16.2346 31.3095 17.2086 30.2571 18.345 30.2571ZM1.70462 39.115C1.70462 37.8872 2.6787 36.8348 3.81512 36.8348C4.95154 36.8348 5.9256 37.8872 5.9256 39.115C5.9256 40.3428 4.95154 41.3953 3.81512 41.3953C2.6787 41.3953 1.70462 40.4305 1.70462 39.115ZM6.33147 42.0969C7.06202 41.3953 7.54906 40.3429 7.54906 39.2028C7.54906 38.0626 7.06202 37.0102 6.33147 36.3085C8.92899 33.3267 11.4453 31.8358 14.7734 31.6604C14.6923 32.0112 14.6111 32.2743 14.6111 32.6251C14.6111 34.8177 16.3157 36.6594 18.345 36.6594C19.4003 36.6594 20.2932 36.2208 21.0237 35.4315C22.7284 37.361 25.0012 38.7642 27.1117 39.6413C25.0824 40.5183 22.7284 41.9215 21.0237 43.8509C20.3744 43.0616 19.4003 42.6231 18.345 42.6231C16.3157 42.6231 14.6111 44.4649 14.6111 46.6574C14.6111 46.7451 14.6111 46.7451 14.6111 46.8328C11.4454 46.482 8.84782 44.9911 6.33147 42.0969ZM16.2346 46.5697C16.2346 45.3419 17.2086 44.2895 18.345 44.2895C19.4815 44.2895 20.4555 45.3419 20.4555 46.5697C20.4555 47.7975 19.4815 48.85 18.345 48.85C17.2086 48.7623 16.2346 47.7975 16.2346 46.5697ZM13.4747 65.9518C12.663 66.8288 11.3642 66.8288 10.5525 65.9518C9.74073 65.0748 9.74073 63.6715 10.5525 62.7945C10.9583 62.356 11.5265 62.0929 12.0136 62.0929C12.5006 62.0929 13.0688 62.2683 13.4747 62.7945C14.2864 63.5838 14.2864 65.0748 13.4747 65.9518ZM15.6663 63.847C15.5852 62.9699 15.2605 62.1806 14.6111 61.5667C14.2052 61.1282 13.7182 60.7774 13.15 60.602C12.9065 56.1292 13.8805 52.8842 16.3969 50.0778C16.9651 50.4286 17.6145 50.604 18.2639 50.604C20.2932 50.604 21.9978 48.7622 21.9978 46.5697C21.9978 46.1312 21.9166 45.6927 21.7543 45.2542L21.8355 45.3419C23.946 42.7108 27.5987 40.9568 29.8716 40.5183C30.3586 43.4124 32.4691 45.605 35.1478 46.1312C34.9855 48.3237 33.362 52.5334 30.9268 55.0768C30.2774 54.3752 29.3034 53.8489 28.3293 53.8489C26.3 53.8489 24.5953 55.6907 24.5953 57.8832C24.5953 58.9357 24.92 59.8127 25.5694 60.5143C22.8907 63.0577 19.9685 64.1101 15.6663 63.847ZM28.3293 60.0758C27.1929 60.0758 26.2188 59.0233 26.2188 57.7955C26.2188 56.5677 27.1929 55.5153 28.3293 55.5153C29.4657 55.5153 30.4398 56.5677 30.4398 57.7955C30.4398 59.0233 29.4657 60.0758 28.3293 60.0758ZM36.2842 77.2653C35.1478 77.2653 34.1737 76.2129 34.1737 74.9851C34.1737 73.7573 35.1478 72.7048 36.2842 72.7048C37.4206 72.7048 38.3947 73.7573 38.3947 74.9851C38.3947 76.3006 37.4206 77.2653 36.2842 77.2653ZM38.3947 71.7401C37.8265 71.3016 37.0959 71.0385 36.2842 71.0385C35.4725 71.0385 34.7419 71.3016 34.0926 71.8278C30.7645 68.7582 29.3034 65.6887 29.141 61.7421C30.7645 61.3036 32.0632 59.725 32.0632 57.8832C32.0632 57.4447 31.9821 57.0062 31.8197 56.5677C34.0925 54.3752 35.6348 51.1302 36.3654 48.4991C37.0148 50.9548 38.4759 54.0243 40.5864 56.2169C40.3429 56.7431 40.2617 57.2693 40.2617 57.8832C40.2617 59.8127 41.5604 61.479 43.2651 61.8298C43.1027 65.6887 41.6416 68.6706 38.3947 71.7401ZM43.9956 60.0758C42.8592 60.0758 41.8852 59.0233 41.8852 57.7955C41.8852 56.5677 42.8592 55.5153 43.9956 55.5153C45.132 55.5153 46.1061 56.5677 46.1061 57.7955C46.0249 59.0233 45.132 60.0758 43.9956 60.0758ZM61.0419 65.9518C60.2302 66.8288 58.8503 66.8288 58.1197 65.9518C57.308 65.0748 57.308 63.6715 58.1197 62.7945C58.5256 62.356 59.0126 62.1806 59.5808 62.1806C60.149 62.1806 60.636 62.4437 61.0419 62.7945C61.8536 63.5838 61.8536 65.0748 61.0419 65.9518ZM58.282 60.602C57.795 60.7774 57.308 61.1282 56.9021 61.479C56.4151 62.0052 56.1716 62.5314 56.0092 63.233C52.1129 63.4961 49.353 62.6191 46.8367 60.3389C47.4049 59.6373 47.7296 58.7602 47.7296 57.7955C47.7296 55.603 46.0249 53.7612 43.9956 53.7612C43.1027 53.7612 42.2098 54.112 41.5604 54.7259C39.2064 52.1826 37.6642 48.1483 37.583 46.0435C40.0993 45.5173 42.0475 43.4124 42.6157 40.6936C44.7262 41.0444 48.2166 42.7108 50.4894 45.1665C50.1648 45.7804 49.9212 46.482 49.9212 47.1836C49.9212 49.3761 51.6259 51.2179 53.6552 51.2179C54.3858 51.2179 55.0351 50.9548 55.5222 50.604C57.6327 53.4105 58.4444 56.3923 58.282 60.602ZM53.6552 49.4638C52.5188 49.4638 51.5447 48.4114 51.5447 47.1836C51.5447 45.9558 52.5188 44.9034 53.6552 44.9034C54.7916 44.9034 55.7657 45.9558 55.7657 47.1836C55.7657 48.4991 54.7916 49.4638 53.6552 49.4638ZM57.308 46.7451C57.0645 44.7279 55.5222 43.237 53.6552 43.237C52.9246 43.237 52.1941 43.5001 51.5447 43.9386C49.5966 41.8338 46.999 40.3428 44.8074 39.5535C46.999 38.7642 49.5966 37.2733 51.5447 35.1684C52.1129 35.6069 52.8435 35.87 53.6552 35.87C55.6845 35.87 57.3891 34.0283 57.3891 31.8358C57.3891 31.7481 57.3891 31.6603 57.3891 31.4849C60.8796 31.6603 63.5583 33.0636 66.237 36.2209C65.5064 36.9225 65.1005 37.9749 65.1005 39.115C65.1005 40.2551 65.5064 41.2199 66.237 42.0092C63.4771 45.1664 60.7984 46.5697 57.308 46.7451ZM68.7533 41.3953C67.6169 41.3953 66.6428 40.3428 66.6428 39.115C66.6428 37.8872 67.6169 36.8348 68.7533 36.8348C69.8897 36.8348 70.8638 37.8872 70.8638 39.115C70.8638 40.4305 69.9709 41.3953 68.7533 41.3953Z" fill="black"/>
</svg>
