<svg width="28" height="28" viewBox="0 0 28 28" fill="none" xmlns="http://www.w3.org/2000/svg">
<path d="M14 7.75V16.5M14 16.5L17.75 12.75M14 16.5L10.25 12.75" stroke="black" stroke-width="1.5" stroke-linecap="round" stroke-linejoin="round"/>
<path d="M19 20.25H9" stroke="black" stroke-width="1.5" stroke-linecap="round"/>
<path d="M1.5 14C1.5 8.1075 1.5 5.16125 3.33 3.33C5.1625 1.5 8.1075 1.5 14 1.5C19.8925 1.5 22.8387 1.5 24.6687 3.33C26.5 5.1625 26.5 8.1075 26.5 14C26.5 19.8925 26.5 22.8387 24.6687 24.6687C22.84 26.5 19.8925 26.5 14 26.5C8.1075 26.5 5.16125 26.5 3.33 24.6687C1.5 22.84 1.5 19.8925 1.5 14Z" stroke="black" stroke-width="1.5"/>
</svg>
