<svg width="20" height="20" viewBox="0 0 20 20" fill="none" xmlns="http://www.w3.org/2000/svg">
<path d="M2.62418 8.72856C2.51293 8.9349 2.21861 8.93964 2.10078 8.73698L0.762126 6.43479C0.645833 6.23479 0.790118 5.98399 1.02147 5.98399H1.27402C1.4397 5.98399 1.57402 5.84967 1.57402 5.68399V0.799987C1.57402 0.634301 1.70833 0.499986 1.87402 0.499986H10.942C11.1077 0.499986 11.242 0.634301 11.242 0.799986V1.71795C11.242 1.88364 11.1077 2.01795 10.942 2.01795H3.33002C3.16433 2.01795 3.03002 2.15227 3.03002 2.31795V5.68395C3.03002 5.84964 3.16433 5.98395 3.33002 5.98395H3.60145C3.82853 5.98395 3.97328 6.22646 3.86551 6.42633L2.62418 8.72856ZM13.5908 7.78586C13.5457 7.90057 13.435 7.97597 13.3117 7.97597H12.2264C12.0107 7.97597 11.8654 7.75504 11.951 7.55699L14.9218 0.680985C14.9693 0.571113 15.0775 0.499969 15.1972 0.499969H16.096C16.2161 0.499969 16.3246 0.571596 16.3719 0.682025L19.3153 7.56603C19.3999 7.76396 19.2547 7.98397 19.0395 7.98397H17.9282C17.806 7.98397 17.696 7.90986 17.6501 7.7966L17.136 6.52732C17.0901 6.41407 16.9801 6.33995 16.8579 6.33995H14.3644C14.2411 6.33995 14.1304 6.41536 14.0852 6.53006L13.5908 7.78586ZM14.8708 4.53325C14.7961 4.7296 14.9411 4.93997 15.1512 4.93997H16.0794C16.2899 4.93997 16.4349 4.72889 16.3595 4.53242L15.8933 3.31848C15.7946 3.06147 15.4308 3.06202 15.3328 3.31932L14.8708 4.53325ZM4.99999 12.3C5 12.4657 5.13431 12.6 5.29999 12.6H5.608C5.77369 12.6 5.908 12.7343 5.908 12.9V14.8813C5.908 14.9945 5.84504 15.1007 5.73829 15.1385C5.57183 15.1975 5.39554 15.226 5.21797 15.222C4.95863 15.2177 4.70507 15.145 4.48293 15.0115C4.47027 15.0039 4.45842 14.995 4.44715 14.9855C4.30093 14.8618 4.265 14.6288 4.3747 14.4718C4.6228 14.1166 4.75234 13.6879 4.73802 13.2479C4.73802 11.9899 3.93802 11.1459 2.73802 11.1459C2.0028 11.1352 1.31732 11.5161 0.938017 12.146C0.904703 12.2019 0.91159 12.273 0.955019 12.3215L1.71658 13.172C1.78497 13.2484 1.90861 13.2329 1.95599 13.142C2.0166 12.9931 2.11999 12.8655 2.25319 12.7754C2.38633 12.6853 2.54322 12.6368 2.70397 12.636C3.08997 12.636 3.33197 12.92 3.33197 13.3759C3.33197 13.706 3.228 14.2599 2.53198 14.2599L2.34795 14.26C2.18228 14.26 2.04799 14.3943 2.04799 14.56V15.448C2.04799 15.6137 2.18231 15.748 2.34799 15.748H2.74402C3.33002 15.748 3.62606 16.012 3.62606 16.534C3.62606 16.962 3.41004 17.418 2.80607 17.418C2.11004 17.418 1.73009 16.818 1.63009 16.618C1.5815 16.5286 1.45882 16.5147 1.39145 16.5909L0.574561 17.5156C0.530563 17.5654 0.52541 17.6385 0.561988 17.694C1.04969 18.4578 1.89382 18.9195 2.79999 18.9179C3.97869 18.9179 4.84263 18.1415 5.0292 16.9772C5.06137 16.7765 5.26529 16.6357 5.46836 16.6444C5.48691 16.6452 5.50546 16.6457 5.52402 16.6457C5.72309 16.6465 5.91599 16.7898 5.91599 16.9889V19.2C5.91599 19.3657 6.0503 19.5 6.21599 19.5H7.09C7.25569 19.5 7.39 19.3656 7.39 19.2L7.38994 12.9C7.38994 12.7343 7.52426 12.6 7.68994 12.6H8.49997C8.66566 12.6 8.79997 12.7343 8.79997 12.9V19.2C8.79997 19.3656 8.93429 19.5 9.09997 19.5H9.97399C10.1397 19.5 10.274 19.3656 10.274 19.2V12.9C10.274 12.7343 10.4083 12.6 10.574 12.6H11.106C11.2717 12.6 11.406 12.4656 11.406 12.2999L11.406 11.4999C11.406 11.3343 11.2717 11.2 11.106 11.2H5.29997C5.13428 11.2 4.99996 11.3343 4.99997 11.5L4.99999 12.3ZM16.1002 12.9302C16.0047 13.1294 16.1498 13.36 16.3707 13.36H16.668C16.8337 13.36 16.968 13.4943 16.968 13.66L16.968 17.5C16.968 17.6657 16.8336 17.8 16.668 17.8H12.404C12.2383 17.8 12.104 17.9343 12.104 18.1V19.2C12.104 19.3657 12.2383 19.5 12.404 19.5H18.124C18.2896 19.5 18.424 19.3657 18.424 19.2L18.424 13.66C18.424 13.4943 18.5583 13.36 18.724 13.36H19.0067C19.2316 13.36 19.3766 13.1217 19.2731 12.922L17.9047 10.2801C17.7908 10.0604 17.4749 10.0652 17.3678 10.2883L16.1002 12.9302Z" fill="#303030"/>
</svg>
