<svg width="24" height="24" viewBox="0 0 24 24" fill="none" xmlns="http://www.w3.org/2000/svg">
<g clip-path="url(#clip0_6170_105579)">
<path d="M9.744 0H14.256C15.7735 0 16.968 4.0577e-07 17.9298 0.079385C18.9083 0.15877 19.728 0.324923 20.472 0.703385C21.6882 1.32295 22.6771 2.31175 23.2966 3.528C23.6751 4.272 23.8412 5.09169 23.9206 6.072C24 7.032 24 8.22831 24 9.744V14.256C24 15.7735 24 16.968 23.9206 17.9298C23.8412 18.9083 23.6751 19.728 23.2966 20.472C22.6771 21.6882 21.6882 22.6771 20.472 23.2966C19.728 23.6751 18.9083 23.8412 17.928 23.9206C16.968 24 15.7717 24 14.256 24H7.60985C4.32 24 2.67138 20.0234 4.99754 17.6972L13.9255 8.76923H9.23077C8.98595 8.76923 8.75117 8.67198 8.57805 8.49887C8.40494 8.32576 8.30769 8.09097 8.30769 7.84615C8.30769 7.60134 8.40494 7.36655 8.57805 7.19344C8.75117 7.02033 8.98595 6.92308 9.23077 6.92308H16.1538C16.3987 6.92308 16.6334 7.02033 16.8066 7.19344C16.9797 7.36655 17.0769 7.60134 17.0769 7.84615V14.7692C17.0769 15.014 16.9797 15.2488 16.8066 15.4219C16.6334 15.5951 16.3987 15.6923 16.1538 15.6923C15.909 15.6923 15.6742 15.5951 15.5011 15.4219C15.328 15.2488 15.2308 15.014 15.2308 14.7692V10.0745L6.30277 19.0025C5.13969 20.1655 5.96308 22.1538 7.608 22.1538H14.2154C15.7809 22.1538 16.9015 22.1538 17.7785 22.08C18.6443 22.0098 19.1926 21.8769 19.6338 21.6498C20.5018 21.2074 21.2074 20.5018 21.6498 19.6338C21.8751 19.1926 22.0098 18.6443 22.0818 17.7785C22.1538 16.8997 22.1538 15.7809 22.1538 14.2154V9.78462C22.1538 8.21908 22.1538 7.09846 22.08 6.22154C22.0098 5.35569 21.8769 4.80738 21.6498 4.36615C21.2078 3.49755 20.502 2.79119 19.6338 2.34831C19.1926 2.12492 18.6443 1.99015 17.7785 1.91815C16.8997 1.84615 15.7809 1.84615 14.2154 1.84615H9.78462C8.21908 1.84615 7.09846 1.84615 6.22154 1.92C5.35569 1.99015 4.80738 2.12308 4.36615 2.34831C3.49727 2.79088 2.79088 3.49727 2.34831 4.36615C2.12492 4.80738 1.99015 5.35569 1.91815 6.22154C1.84615 7.09846 1.84615 8.21908 1.84615 9.78462V14.7692C1.84615 15.014 1.7489 15.2488 1.57579 15.4219C1.40268 15.5951 1.16789 15.6923 0.923077 15.6923C0.678262 15.6923 0.443474 15.5951 0.270363 15.4219C0.0972527 15.2488 0 15.014 0 14.7692V9.744C0 8.22831 4.0577e-07 7.03385 0.079385 6.07015C0.15877 5.09169 0.324923 4.272 0.703385 3.528C1.32295 2.31175 2.31175 1.32295 3.528 0.703385C4.272 0.324923 5.09169 0.15877 6.072 0.079385C7.032 4.0577e-07 8.22831 0 9.744 0Z" fill="black"/>
</g>
<defs>
<clipPath id="clip0_6170_105579">
<rect width="24" height="24" fill="white"/>
</clipPath>
</defs>
</svg>
