<svg width="20" height="20" viewBox="0 0 20 20" fill="none" xmlns="http://www.w3.org/2000/svg">
<path fill-rule="evenodd" clip-rule="evenodd" d="M18.9714 15.0718H11.6203C13.2783 14.2338 15.222 13.8998 17.4223 14.0758C17.4861 14.081 17.5504 14.0728 17.6109 14.0519C17.6715 14.0311 17.727 13.9979 17.7741 13.9545C17.8212 13.9111 17.8589 13.8584 17.8846 13.7998C17.9104 13.7412 17.9238 13.6779 17.9239 13.6138V5.89802H18.9714V15.0722V15.0718ZM1.0273 5.89802H2.07651V13.6138C2.07664 13.6779 2.09001 13.7412 2.11579 13.7998C2.14156 13.8584 2.17919 13.9111 2.2263 13.9545C2.27341 13.9979 2.32898 14.0311 2.38952 14.0519C2.45007 14.0728 2.51428 14.081 2.57812 14.0758C4.77817 13.8987 6.7217 14.2336 8.3801 15.0716H1.0273V5.89736V5.89802ZM3.00515 3.94569V13.1186C3.24033 13.1072 3.47222 13.1014 3.70213 13.1014C5.91164 13.1014 7.86748 13.6233 9.53688 14.6573V5.66921C7.75066 4.39494 5.55479 3.81567 3.00515 3.94569ZM16.9953 3.94569C14.4448 3.81589 12.2498 4.39494 10.4635 5.66921V14.6577C12.3083 13.5157 14.4976 12.9991 16.9953 13.1177V3.94569ZM19.4373 4.96982H17.9239V3.51118C17.9237 3.39466 17.8798 3.28246 17.8007 3.19687C17.7216 3.11128 17.6133 3.05856 17.4971 3.04917C14.5743 2.81399 12.0529 3.42318 10.0002 4.86113C7.94581 3.4234 5.42631 2.81509 2.50332 3.04917C2.38717 3.05856 2.27881 3.11128 2.19974 3.19687C2.12067 3.28246 2.07668 3.39466 2.07651 3.51118V4.96982H0.563972C0.502966 4.96956 0.442513 4.98138 0.386101 5.0046C0.329688 5.02783 0.278434 5.062 0.235296 5.10513C0.192159 5.14827 0.157991 5.19952 0.134766 5.25594C0.111541 5.31235 0.0997188 5.3728 0.0999808 5.43381V15.5358C0.0996901 15.5968 0.111477 15.6572 0.134661 15.7136C0.157846 15.77 0.191969 15.8213 0.235063 15.8644C0.278157 15.9076 0.329369 15.9418 0.385745 15.9651C0.442121 15.9883 0.502545 16.0002 0.563532 16H19.4365C19.5595 15.9998 19.6774 15.9508 19.7643 15.8638C19.8512 15.7768 19.9 15.6588 19.9 15.5358V5.43381C19.9 5.31084 19.8511 5.19293 19.7642 5.10594C19.6773 5.01895 19.5594 4.96999 19.4365 4.96982H19.4373Z" fill="#EDE2D1"/>
</svg>
