<svg width="20" height="20" viewBox="0 0 20 20" fill="none" xmlns="http://www.w3.org/2000/svg">
<path fill-rule="evenodd" clip-rule="evenodd" d="M8.54165 0.208313H13.125V1.04165H19.7916V13.9583H16.6666V12.7083H18.5416V2.29165H13.125V3.12498H8.54165V2.29165H3.12498V4.16665H1.87498V1.04165H8.54165V0.208313ZM2.91231 6.24564C3.5765 5.58145 4.47734 5.20831 5.41665 5.20831C6.35595 5.20831 7.25679 5.58145 7.92098 6.24564C8.58517 6.90983 8.95831 7.81067 8.95831 8.74998C8.95831 9.38684 8.78678 10.006 8.46931 10.5457C10.0773 10.0221 11.4674 9.15065 12.5783 8.26194C13.4567 7.55923 14.1477 6.85566 14.6184 6.32851C14.8534 6.0653 15.0326 5.84706 15.1518 5.69628C15.2114 5.62092 15.256 5.56249 15.285 5.52382C15.2995 5.50449 15.3101 5.49011 15.3167 5.48102L15.3237 5.47142L15.3249 5.46975C15.3248 5.46988 15.3247 5.47004 15.8333 5.83331C16.3419 6.19659 16.3418 6.19678 16.3416 6.19701L16.3401 6.19907L16.3368 6.20366L16.3256 6.21907C16.3161 6.23206 16.3025 6.25043 16.285 6.27382C16.2499 6.3206 16.1988 6.3875 16.1323 6.47165C15.9993 6.63987 15.8041 6.87737 15.5508 7.16103C15.4298 7.29655 15.2954 7.44284 15.1479 7.59732L16.6128 9.06226L16.376 9.47673C14.6574 12.4842 13.128 13.7018 12.0073 14.4303C11.8562 14.5284 11.6917 14.6307 11.5476 14.7202C11.4545 14.778 11.37 14.8306 11.3033 14.8732C11.1046 15.0001 10.9686 15.0973 10.8688 15.1903C10.7757 15.2771 10.7232 15.3521 10.6893 15.4319C10.6544 15.5142 10.625 15.6359 10.625 15.8333V19.7916H0.208313V15.8333C0.208313 13.9487 1.04955 12.7158 2.15329 11.9799C2.47053 11.7685 2.80612 11.5999 3.1452 11.4673C3.06476 11.4001 2.98704 11.329 2.91231 11.2543C2.24812 10.5901 1.87498 9.68929 1.87498 8.74998C1.87498 7.81067 2.24812 6.90983 2.91231 6.24564ZM5.41665 11.0416C6.02443 11.0416 6.60733 10.8002 7.0371 10.3704C7.46687 9.94066 7.70831 9.35777 7.70831 8.74998C7.70831 8.14219 7.46687 7.5593 7.0371 7.12953C6.60733 6.69975 6.02443 6.45831 5.41665 6.45831C4.80886 6.45831 4.22596 6.69975 3.79619 7.12953C3.36642 7.5593 3.12498 8.14219 3.12498 8.74998C3.12498 9.35777 3.36642 9.94066 3.79619 10.3704C4.22596 10.8002 4.80886 11.0416 5.41665 11.0416ZM5.41665 12.2916C4.66662 12.2916 3.65257 12.4827 2.84667 13.02C2.07541 13.5342 1.45831 14.3846 1.45831 15.8333V18.5416H9.37498V15.8333C9.37498 15.5099 9.42365 15.2149 9.53849 14.944C9.6544 14.6706 9.82325 14.456 10.0166 14.2758C10.2032 14.1019 10.4188 13.955 10.6303 13.8198C10.7334 13.7539 10.826 13.6966 10.9196 13.6386C11.0442 13.5615 11.1706 13.4832 11.326 13.3822C12.2405 12.7878 13.5382 11.7887 15.0502 9.26742L14.2544 8.47165C13.9806 8.72203 13.6817 8.97998 13.3592 9.23802C11.478 10.743 8.73873 12.2916 5.41665 12.2916Z" fill="#94562B"/>
</svg>
