<svg width="20" height="20" viewBox="0 0 20 20" fill="none" xmlns="http://www.w3.org/2000/svg">
<path fill-rule="evenodd" clip-rule="evenodd" d="M19.062 15.0718H11.6367C13.3114 14.2338 15.2748 13.8998 17.4973 14.0758C17.5618 14.081 17.6266 14.0728 17.6878 14.0519C17.7489 14.0311 17.8051 13.9979 17.8527 13.9545C17.9002 13.9111 17.9382 13.8584 17.9643 13.7998C17.9903 13.7412 18.0038 13.6779 18.004 13.6138V5.89802H19.062V15.0722V15.0718ZM0.936693 5.89802H1.99649V13.6138C1.99662 13.6779 2.01013 13.7412 2.03617 13.7998C2.06221 13.8584 2.10021 13.9111 2.1478 13.9545C2.19538 13.9979 2.25151 14.0311 2.31267 14.0519C2.37383 14.0728 2.43869 14.081 2.50317 14.0758C4.72544 13.8987 6.6886 14.2336 8.36374 15.0716H0.936693V5.89736V5.89802ZM2.93451 3.94569V13.1186C3.17207 13.1072 3.4063 13.1014 3.63853 13.1014C5.87036 13.1014 7.84596 13.6233 9.53221 14.6573V5.66921C7.72795 4.39494 5.5099 3.81567 2.93451 3.94569ZM17.0659 3.94569C14.4897 3.81589 12.2725 4.39494 10.4682 5.66921V14.6577C12.3316 13.5157 14.543 12.9991 17.0659 13.1177V3.94569ZM19.5327 4.96982H18.004V3.51118C18.0038 3.39466 17.9593 3.28246 17.8795 3.19687C17.7996 3.11128 17.6902 3.05856 17.5728 3.04917C14.6205 2.81399 12.0736 3.42318 10.0002 4.86113C7.92507 3.4234 5.38012 2.81509 2.42761 3.04917C2.3103 3.05856 2.20084 3.11128 2.12097 3.19687C2.0411 3.28246 1.99667 3.39466 1.99649 3.51118V4.96982H0.468682C0.407061 4.96956 0.345997 4.98138 0.289015 5.0046C0.232033 5.02783 0.180261 5.062 0.136687 5.10513C0.093114 5.14827 0.0586016 5.19952 0.0351421 5.25594C0.0116827 5.31235 -0.000259359 5.3728 5.30404e-06 5.43381V15.5358C-0.00028839 15.5968 0.0116175 15.6572 0.0350361 15.7136C0.0584547 15.77 0.0929226 15.8213 0.136452 15.8644C0.179981 15.9076 0.23171 15.9418 0.288655 15.9651C0.3456 15.9883 0.406635 16.0002 0.468238 16H19.5318C19.656 15.9998 19.7751 15.9508 19.8629 15.8638C19.9507 15.7768 20 15.6588 20 15.5358V5.43381C19.9999 5.31084 19.9506 5.19293 19.8628 5.10594C19.775 5.01895 19.656 4.96999 19.5318 4.96982H19.5327Z" fill="#666666"/>
</svg>
