<svg width="20" height="20" viewBox="0 0 20 20" fill="none" xmlns="http://www.w3.org/2000/svg">
<path d="M6.67326 13.2602C6.49083 13.3599 6.3376 13.5116 6.23045 13.6987C6.12331 13.8858 6.0664 14.1009 6.06599 14.3204V16.2695C6.06695 16.5866 6.18487 16.8904 6.39402 17.1146C6.60317 17.3388 6.88657 17.4652 7.18235 17.4662H7.41144V18.3589C7.41144 18.7935 7.57223 19.2103 7.85855 19.518C8.14486 19.8256 8.53332 19.999 8.93871 20H11.0623C11.4677 19.999 11.8562 19.8256 12.1425 19.518C12.4288 19.2103 12.5896 18.7935 12.5896 18.3589V17.4545H12.8187C13.1145 17.4535 13.3979 17.3271 13.607 17.1029C13.8162 16.8787 13.9341 16.5749 13.9351 16.2578V14.3088C13.934 14.0933 13.8787 13.8822 13.7751 13.6976C13.6714 13.513 13.5231 13.3619 13.346 13.2602C13.5504 12.2805 13.9706 11.3676 14.5714 10.5977C15.3093 9.66732 15.7848 8.53096 15.9423 7.32152C16.0999 6.11208 15.933 4.87955 15.4612 3.76803C14.9894 2.65652 14.2322 1.71195 13.278 1.04477C12.3239 0.377597 11.2123 0.0153821 10.0732 0.000479144C8.93413 -0.0144239 7.81462 0.318602 6.84559 0.960618C5.87655 1.60263 5.09803 2.52711 4.60106 3.62595C4.10409 4.72479 3.90921 5.95259 4.03919 7.16579C4.16917 8.37899 4.61865 9.52745 5.33508 10.4769C5.96183 11.2913 6.41818 12.2404 6.67326 13.2602ZM11.4987 18.3472C11.4987 18.4716 11.4529 18.591 11.3711 18.6793C11.2894 18.7677 11.1784 18.8178 11.0623 18.8189H8.93871C8.82265 18.8178 8.71167 18.7677 8.62994 18.6793C8.5482 18.591 8.50235 18.4716 8.50235 18.3472V17.4545H11.4987V18.3472ZM12.8442 16.2578C12.8442 16.265 12.8415 16.272 12.8367 16.2771C12.8319 16.2822 12.8255 16.2851 12.8187 16.2851H7.18235C7.1756 16.2851 7.16913 16.2822 7.16435 16.2771C7.15958 16.272 7.1569 16.265 7.1569 16.2578V14.3088C7.1569 14.3015 7.15958 14.2946 7.16435 14.2895C7.16913 14.2843 7.1756 14.2815 7.18235 14.2815H12.8187C12.8255 14.2815 12.8319 14.2843 12.8367 14.2895C12.8415 14.2946 12.8442 14.3015 12.8442 14.3088V16.2578ZM9.45508 7.90025H8.4369C8.23552 7.90025 8.03866 7.83623 7.87122 7.7163C7.70379 7.59637 7.57328 7.4259 7.49622 7.22646C7.41916 7.02702 7.39899 6.80756 7.43828 6.59584C7.47757 6.38411 7.57454 6.18963 7.71693 6.03699C7.85933 5.88434 8.04075 5.78039 8.23826 5.73827C8.43577 5.69616 8.64049 5.71777 8.82654 5.80039C9.01259 5.883 9.1716 6.02289 9.28348 6.20238C9.39536 6.38188 9.45508 6.5929 9.45508 6.80877V7.90025ZM6.61508 2.63389C7.09618 2.13824 7.6673 1.75405 8.2929 1.50524C8.91851 1.25644 9.58518 1.14834 10.2514 1.18769C11.1673 1.23442 12.0527 1.55541 12.807 2.11423C13.5614 2.67305 14.1545 3.44733 14.5191 4.34922C14.8838 5.25111 15.0053 6.24449 14.8699 7.21667C14.7345 8.18885 14.3477 9.10088 13.7533 9.84931C13.0144 10.7935 12.5037 11.918 12.266 13.1237H10.546V9.06968H11.5642C11.9159 9.0704 12.2622 8.97683 12.5715 8.79747C12.8809 8.61812 13.1435 8.35868 13.3354 8.04277C13.5274 7.72686 13.6426 7.3645 13.6706 6.98868C13.6986 6.61285 13.6385 6.23549 13.4957 5.89093C13.3529 5.54638 13.132 5.24557 12.8531 5.01588C12.5742 4.78619 12.2461 4.63491 11.8988 4.57582C11.5514 4.51672 11.1958 4.55168 10.8643 4.67752C10.5327 4.80335 10.2358 5.01607 10.0005 5.29631C9.76525 5.01607 9.46834 4.80335 9.1368 4.67752C8.80526 4.55168 8.44963 4.51672 8.10228 4.57582C7.75492 4.63491 7.42686 4.78619 7.14796 5.01588C6.86906 5.24557 6.64817 5.54638 6.50539 5.89093C6.36261 6.23549 6.30247 6.61285 6.33046 6.98868C6.35844 7.3645 6.47366 7.72686 6.66562 8.04277C6.85758 8.35868 7.12018 8.61812 7.42954 8.79747C7.7389 8.97683 8.08519 9.0704 8.4369 9.06968H9.45508V13.1237H7.76781C7.48272 11.8862 6.94078 10.7336 6.18235 9.75185C5.40755 8.7239 5.02191 7.42106 5.10208 6.10229C5.18225 4.78351 5.72237 3.54535 6.61508 2.63389ZM10.546 7.90025V6.80877C10.546 6.5929 10.6057 6.38188 10.7176 6.20238C10.8295 6.02289 10.9885 5.883 11.1745 5.80039C11.3606 5.71777 11.5653 5.69616 11.7628 5.73827C11.9603 5.78039 12.1417 5.88434 12.2841 6.03699C12.4265 6.18963 12.5235 6.38411 12.5628 6.59584C12.6021 6.80756 12.5819 7.02702 12.5048 7.22646C12.4278 7.4259 12.2973 7.59637 12.1298 7.7163C11.9624 7.83623 11.7655 7.90025 11.5642 7.90025H10.546Z" fill="#EDE2D1"/>
</svg>
