<svg width="20" height="20" viewBox="0 0 20 20" fill="none" xmlns="http://www.w3.org/2000/svg">
<path fill-rule="evenodd" clip-rule="evenodd" d="M4.16667 3.125C3.8904 3.125 3.62545 3.23475 3.4301 3.4301C3.23475 3.62545 3.125 3.8904 3.125 4.16667V15.8333C3.125 16.1096 3.23475 16.3746 3.4301 16.5699C3.62545 16.7653 3.8904 16.875 4.16667 16.875H15.8333C16.1096 16.875 16.3746 16.7653 16.5699 16.5699C16.7653 16.3746 16.875 16.1096 16.875 15.8333V11.6667C16.875 11.3215 17.1548 11.0417 17.5 11.0417C17.8452 11.0417 18.125 11.3215 18.125 11.6667V15.8333C18.125 16.4411 17.8836 17.024 17.4538 17.4538C17.024 17.8836 16.4411 18.125 15.8333 18.125H4.16667C3.55888 18.125 2.97598 17.8836 2.54621 17.4538C2.11644 17.024 1.875 16.4411 1.875 15.8333V4.16667C1.875 3.55888 2.11644 2.97598 2.54621 2.54621C2.97598 2.11644 3.55888 1.875 4.16667 1.875H8.33333C8.67851 1.875 8.95833 2.15482 8.95833 2.5C8.95833 2.84518 8.67851 3.125 8.33333 3.125H4.16667ZM12.7083 2.5C12.7083 2.15482 12.9882 1.875 13.3333 1.875H17.5C17.8452 1.875 18.125 2.15482 18.125 2.5V6.66667C18.125 7.01184 17.8452 7.29167 17.5 7.29167C17.1548 7.29167 16.875 7.01184 16.875 6.66667V4.00888L11.6919 9.19194C11.4479 9.43602 11.0521 9.43602 10.8081 9.19194C10.564 8.94786 10.564 8.55214 10.8081 8.30806L15.9911 3.125H13.3333C12.9882 3.125 12.7083 2.84518 12.7083 2.5Z" fill="#EDE2D1"/>
</svg>
