<svg width="20" height="20" viewBox="0 0 20 20" fill="none" xmlns="http://www.w3.org/2000/svg">
<path d="M6.6446 5.8099C6.71278 5.81263 6.78082 5.80166 6.84469 5.77763C6.90855 5.7536 6.96695 5.71701 7.01642 5.67001C7.0659 5.62301 7.10544 5.56656 7.13271 5.50401C7.15998 5.44146 7.17442 5.37408 7.17518 5.30584L7.19151 3.83245C7.19056 3.50496 7.25149 3.18023 7.37109 2.87536C7.73434 1.98153 8.65674 1.01831 9.81994 1.01831H10.0995V1.52441C10.0973 1.65237 10.1433 1.77648 10.2284 1.87212C10.3134 1.96775 10.4313 2.02793 10.5587 2.04071C10.9219 2.09436 11.2699 2.22316 11.5805 2.41887C11.8911 2.61459 12.1575 2.87292 12.3627 3.17738C12.5431 3.42829 12.6402 3.72952 12.6402 4.03856V5.30584C12.6402 5.44115 12.694 5.57092 12.7896 5.66659C12.8853 5.76227 13.0151 5.81602 13.1504 5.81602C13.2381 5.81799 13.3219 5.85297 13.3851 5.91397C13.4154 5.94413 13.4393 5.9801 13.4555 6.01972C13.4716 6.05934 13.4796 6.1018 13.4789 6.14457C13.4778 6.39558 13.4175 6.64279 13.303 6.86615C13.1884 7.08952 13.0229 7.28276 12.8198 7.43022C12.7631 7.4721 12.7157 7.52527 12.6806 7.58639C12.6454 7.6475 12.6234 7.71523 12.6157 7.7853C12.544 8.49648 12.2895 9.177 11.877 9.76071C11.7958 9.86896 11.7609 10.005 11.7801 10.139C11.7992 10.2729 11.8708 10.3938 11.979 10.475C12.0873 10.5561 12.2233 10.591 12.3573 10.5719C12.4912 10.5527 12.6121 10.4812 12.6933 10.3729C13.1752 9.70323 13.4875 8.92666 13.6034 8.10978C13.8851 7.86461 14.1111 7.56207 14.2663 7.22244C14.4215 6.8828 14.5023 6.51391 14.5034 6.14049C14.5041 5.96348 14.4697 5.78808 14.402 5.62448C14.3344 5.46088 14.235 5.31234 14.1095 5.18748C13.9788 5.06136 13.824 4.96281 13.6544 4.8977V4.0304C13.6566 3.50563 13.4914 2.99384 13.183 2.56925C12.6842 1.85649 11.9548 1.33756 11.1178 1.09994V0.510177C11.1178 0.37487 11.0641 0.245104 10.9684 0.149427C10.8727 0.0537507 10.743 0 10.6077 0H9.8179C8.18534 0 6.91397 1.29177 6.4242 2.49171C6.25667 2.91528 6.17081 3.36674 6.17116 3.82225L6.15891 4.87525C5.98628 4.94004 5.82865 5.03934 5.69567 5.16707C5.56528 5.29282 5.46185 5.44378 5.39168 5.61078C5.32152 5.77778 5.28608 5.95732 5.28753 6.13845C5.28818 6.51948 5.37218 6.89574 5.53364 7.24087C5.69509 7.58599 5.9301 7.89162 6.22217 8.13631C6.33309 8.90559 6.62012 9.63888 7.0609 10.279V11.4402L2.91827 13.2299C2.34895 13.4748 1.86386 13.8811 1.52294 14.3986C1.18203 14.9162 1.00022 15.5223 1 16.142V18.1623C1 18.2976 1.05375 18.4274 1.14943 18.5231C1.2451 18.6187 1.37487 18.6725 1.51018 18.6725H7.74862C7.88393 18.6725 8.0137 18.6187 8.10937 18.5231C8.20505 18.4274 8.2588 18.2976 8.2588 18.1623C8.2588 18.027 8.20505 17.8972 8.10937 17.8016C8.0137 17.7059 7.88393 17.6521 7.74862 17.6521H2.02035V16.142C2.02018 15.722 2.143 15.3111 2.37364 14.96C2.60428 14.609 2.93266 14.3332 3.31825 14.1666L7.76903 12.2443C7.86035 12.2049 7.93817 12.1397 7.99292 12.0566C8.04767 11.9736 8.07695 11.8764 8.07718 11.7769V10.2137C8.07777 10.0374 8.0212 9.86553 7.91596 9.72398C7.52202 9.15183 7.27721 8.49035 7.20375 7.79959C7.19544 7.72798 7.17205 7.65895 7.13511 7.59704C7.09818 7.53513 7.04854 7.48175 6.98948 7.44042C6.77907 7.29405 6.60707 7.0991 6.48806 6.87209C6.36905 6.64508 6.30654 6.39272 6.30584 6.13641C6.30555 6.09253 6.31428 6.04906 6.33148 6.00869C6.34868 5.96832 6.37399 5.93191 6.40584 5.90173C6.4376 5.87142 6.47506 5.8477 6.51604 5.83194C6.55702 5.81618 6.60071 5.80869 6.6446 5.8099Z" fill="#EDE2D1"/>
<path d="M10.1892 18.9786H12.2095C12.5686 18.9786 12.9236 19.0544 13.2513 19.201C13.5791 19.3477 13.8722 19.5618 14.1115 19.8295C14.1593 19.8832 14.218 19.9261 14.2835 19.9554C14.3491 19.9848 14.4202 20 14.4921 20C14.5639 20 14.635 19.9848 14.7006 19.9554C14.7661 19.9261 14.8248 19.8832 14.8726 19.8295C15.1115 19.5623 15.4039 19.3485 15.7309 19.2018C16.0579 19.0552 16.4121 18.9791 16.7705 18.9786H18.7908C18.9261 18.9786 19.0559 18.9248 19.1516 18.8291C19.2472 18.7335 19.301 18.6037 19.301 18.4684V12.4197C19.301 12.2844 19.2472 12.1547 19.1516 12.059C19.0559 11.9633 18.9261 11.9096 18.7908 11.9096H16.7705C15.9381 11.9076 15.1312 12.1963 14.489 12.7258C13.8468 12.1963 13.0398 11.9076 12.2075 11.9096H10.1872C10.0519 11.9096 9.92211 11.9633 9.82643 12.059C9.73075 12.1547 9.677 12.2844 9.677 12.4197V18.4684C9.677 18.5356 9.69026 18.6021 9.71603 18.6641C9.7418 18.7261 9.77956 18.7825 9.82715 18.8299C9.87474 18.8773 9.93122 18.9148 9.99336 18.9403C10.0555 18.9658 10.1221 18.9788 10.1892 18.9786ZM16.7705 12.9299H18.2806V17.9582H16.7705C16.1491 17.9586 15.5385 18.1211 14.9992 18.4296V13.6503C15.4738 13.1894 16.1089 12.9311 16.7705 12.9299ZM10.6994 12.9299H12.2095C12.8711 12.9311 13.5063 13.1894 13.9809 13.6503V18.4276C13.4407 18.1194 12.8294 17.9576 12.2075 17.9582H10.6974L10.6994 12.9299Z" fill="#EDE2D1"/>
</svg>
