<svg width="20" height="20" viewBox="0 0 20 20" fill="none" xmlns="http://www.w3.org/2000/svg">
<path fill-rule="evenodd" clip-rule="evenodd" d="M8.54171 0.208313H13.125V1.04165H19.7917V13.9583H16.6667V12.7083H18.5417V2.29165H13.125V3.12498H8.54171V2.29165H3.12504V4.16665H1.87504V1.04165H8.54171V0.208313ZM2.91237 6.24564C3.57656 5.58145 4.4774 5.20831 5.41671 5.20831C6.35602 5.20831 7.25685 5.58145 7.92104 6.24564C8.58523 6.90983 8.95837 7.81067 8.95837 8.74998C8.95837 9.38684 8.78684 10.006 8.46937 10.5457C10.0774 10.0221 11.4675 9.15065 12.5784 8.26194C13.4567 7.55923 14.1478 6.85566 14.6185 6.32851C14.8535 6.0653 15.0327 5.84706 15.1519 5.69628C15.2115 5.62092 15.2561 5.56249 15.2851 5.52382C15.2996 5.50449 15.3102 5.49011 15.3168 5.48102L15.3238 5.47142L15.325 5.46975C15.3249 5.46988 15.3248 5.47004 15.8334 5.83331C16.342 6.19659 16.3418 6.19678 16.3417 6.19701L16.3402 6.19907L16.3369 6.20366L16.3257 6.21907C16.3162 6.23206 16.3026 6.25043 16.2851 6.27382C16.25 6.3206 16.1989 6.3875 16.1324 6.47165C15.9993 6.63987 15.8042 6.87737 15.5509 7.16103C15.4299 7.29655 15.2954 7.44284 15.1479 7.59732L16.6129 9.06226L16.376 9.47673C14.6575 12.4842 13.128 13.7018 12.0073 14.4303C11.8563 14.5284 11.6917 14.6307 11.5477 14.7202C11.4546 14.778 11.37 14.8306 11.3033 14.8732C11.1047 15.0001 10.9687 15.0973 10.8688 15.1903C10.7757 15.2771 10.7232 15.3521 10.6894 15.4319C10.6545 15.5142 10.625 15.6359 10.625 15.8333V19.7916H0.208374V15.8333C0.208374 13.9487 1.04961 12.7158 2.15335 11.9799C2.47059 11.7685 2.80618 11.5999 3.14526 11.4673C3.06482 11.4001 2.9871 11.329 2.91237 11.2543C2.24818 10.5901 1.87504 9.68929 1.87504 8.74998C1.87504 7.81067 2.24818 6.90983 2.91237 6.24564ZM5.41671 11.0416C6.02449 11.0416 6.60739 10.8002 7.03716 10.3704C7.46693 9.94066 7.70837 9.35777 7.70837 8.74998C7.70837 8.14219 7.46693 7.5593 7.03716 7.12953C6.60739 6.69975 6.02449 6.45831 5.41671 6.45831C4.80892 6.45831 4.22603 6.69975 3.79625 7.12953C3.36648 7.5593 3.12504 8.14219 3.12504 8.74998C3.12504 9.35777 3.36648 9.94066 3.79625 10.3704C4.22603 10.8002 4.80892 11.0416 5.41671 11.0416ZM5.41671 12.2916C4.66668 12.2916 3.65263 12.4827 2.84673 13.02C2.07547 13.5342 1.45837 14.3846 1.45837 15.8333V18.5416H9.37504V15.8333C9.37504 15.5099 9.42371 15.2149 9.53855 14.944C9.65446 14.6706 9.82332 14.456 10.0167 14.2758C10.2033 14.1019 10.4188 13.955 10.6303 13.8198C10.7334 13.7539 10.826 13.6966 10.9197 13.6386C11.0443 13.5615 11.1707 13.4832 11.3261 13.3822C12.2406 12.7878 13.5383 11.7887 15.0503 9.26742L14.2545 8.47165C13.9806 8.72203 13.6818 8.97998 13.3592 9.23802C11.478 10.743 8.73879 12.2916 5.41671 12.2916Z" fill="#EDE2D1"/>
</svg>
